<svg width="40" height="54" viewBox="0 0 40 54" fill="none" xmlns="http://www.w3.org/2000/svg">
<path fill-rule="evenodd" clip-rule="evenodd" d="M17.092 6.43496C17.9465 6.36121 18.6257 5.672 18.6257 4.78696V1.63336C18.6257 0.906005 19.4333 0.49147 19.9988 0.928905L29.3634 8.20758C30.2105 8.86627 30.2131 10.176 29.366 10.8347L19.9988 18.1363C19.4357 18.5763 18.6257 18.1617 18.6257 17.4344V14.5249C18.6257 13.5102 17.7416 12.7218 16.7661 12.8718C9.91788 13.9425 4.89715 20.7406 6.46288 28.3753C6.77651 29.9063 7.37665 31.3407 8.19902 32.6199C9.09795 34.0212 8.73988 35.9032 7.40877 36.8747L7.35689 36.9103C5.99614 37.9047 4.05511 37.625 3.12654 36.1957C1.15581 33.154 1.52588e-05 29.5045 1.52588e-05 25.5727C1.52588e-05 15.5066 7.51985 7.25133 17.092 6.43496ZM22.908 47.565C22.0536 47.6388 21.3744 48.328 21.3744 49.213V52.3666C21.3744 53.094 20.5668 53.5085 20.0012 53.0711L10.6366 45.7924C9.78954 45.1337 9.78695 43.824 10.634 43.1653L20.0012 35.8637C20.5643 35.4237 21.3744 35.8383 21.3744 36.5656V39.4751C21.3744 40.4898 22.2585 41.2782 23.234 41.1281C30.0821 40.0575 35.1029 33.2594 33.5372 25.6247C33.2235 24.0937 32.6234 22.6593 31.801 21.3801C30.9021 19.9788 31.2602 18.0968 32.5913 17.1253L32.6431 17.0897C34.0039 16.0953 35.9449 16.375 36.8735 17.8043C38.8442 20.846 40 24.4955 40 28.4273C40 38.4934 32.4802 46.7487 22.908 47.565Z" fill="black"/>
</svg>
