<svg width="269" height="277" viewBox="0 0 269 277" fill="none" xmlns="http://www.w3.org/2000/svg">
<path d="M124.157 132.335H135.474V133.235H125.195V140.004H134.861V140.904H125.195V148.336H135.592V149.236H124.157V132.335ZM136.488 132.335H137.69L143.018 139.768L148.464 132.335L155.872 122.895L143.702 140.549L149.973 149.236H148.724L143.018 141.33L137.289 149.236H136.063L142.382 140.549L136.488 132.335ZM150.421 133.235V132.335H163.317V133.235H157.376V149.236H156.339V133.235H150.421ZM110 132.335H111.297L129.177 159.092L121.788 149.236L111.085 133.613L111.037 149.236H110V132.335ZM163.213 148.065C163.001 148.065 162.842 147.9 162.842 147.688C162.842 147.476 163.001 147.312 163.213 147.312C163.427 147.312 163.584 147.476 163.584 147.688C163.584 147.9 163.427 148.065 163.213 148.065ZM164.232 147.074H164.787C164.795 147.375 165.014 147.577 165.337 147.577C165.698 147.577 165.903 147.36 165.903 146.953V144.376H166.468V146.956C166.468 147.688 166.044 148.11 165.342 148.11C164.684 148.11 164.232 147.701 164.232 147.074ZM167.207 147.042H167.767C167.815 147.388 168.153 147.607 168.64 147.607C169.094 147.607 169.427 147.372 169.427 147.049C169.427 146.771 169.215 146.604 168.733 146.491L168.264 146.377C167.606 146.223 167.305 145.905 167.305 145.369C167.305 144.72 167.835 144.288 168.63 144.288C169.369 144.288 169.909 144.72 169.942 145.334H169.392C169.339 144.998 169.046 144.788 168.622 144.788C168.176 144.788 167.878 145.003 167.878 145.331C167.878 145.591 168.07 145.74 168.544 145.852L168.945 145.95C169.692 146.124 170 146.428 170 146.976C170 147.673 169.46 148.11 168.597 148.11C167.79 148.11 167.247 147.693 167.207 147.042Z" fill="black"/>
<g clip-path="url(#clip0_116_102)">
<path d="M77.7 193C75.6962 193.179 73.0512 193.867 69.8037 195.091C68.8295 195.778 67.8107 196.403 66.7537 196.962L66.7662 197.155C66.8462 197.155 66.9362 197.102 67.0662 197.038C67.1987 197.026 67.2775 197.077 67.2775 197.204L67.4875 197.09L67.5925 197.077L67.605 197.167C67.6175 197.256 66.8975 197.803 65.4712 198.784L65.5875 198.962L65.4825 198.976L65.2612 198.899C65.2612 198.962 65.17 199.002 64.9612 199.014L64.9737 199.116L65.21 199.372C65.1017 199.37 64.9948 199.348 64.895 199.307C64.4362 199.345 63.9775 199.676 63.5325 200.288L63.65 200.466C64.0425 200.122 64.265 199.943 64.33 199.943L64.3575 200.223C64.2925 200.223 64.1875 200.274 64.0575 200.337L64.3062 200.696C64.7625 200.208 65.2862 199.783 65.8625 199.435C66.15 199.512 66.295 199.587 66.295 199.689L66.505 199.677C68.0362 198.569 69.555 197.777 71.06 197.281L71.075 197.473C70.8 197.881 70.6037 198.083 70.4987 198.095C70.5112 198.236 70.5637 198.35 70.6425 198.466C70.6687 198.721 69.9875 200.391 68.5987 203.5C65.43 210.712 62.785 216.035 60.65 219.5C60.65 219.563 60.7012 219.666 60.7675 219.78C61.2912 219.653 61.6312 219.54 61.775 219.413L61.895 219.398L61.9075 219.59L62.105 219.577L62.3125 219.462C62.3125 219.526 62.3912 219.551 62.5225 219.538L62.5375 219.731C62.55 219.922 62.4437 220.214 62.195 220.609C61.9725 220.853 61.7512 221.348 61.5025 222.099L61.515 222.189L61.7125 222.177C62.5625 221.248 63.2175 220.328 63.6625 219.436C66.1637 218.723 68.0625 218.022 69.385 217.334C70.7075 217.22 71.73 216.89 72.41 216.329L72.3962 216.227L71.8975 216.367L71.78 216.379L71.7675 216.277C72.7375 216.136 73.4175 215.921 73.785 215.64C75.6837 214.213 77.11 213.207 78.0787 212.609C81.0787 210.469 82.4925 208.405 82.3225 206.443C82.31 206.239 81.6412 205.436 80.345 204.035C80.3187 203.767 80.7762 203.384 81.6925 202.874L84.3 200.644C84.875 199.918 85.23 198.747 85.3475 197.129L85.3087 196.746C85.2037 195.612 84.3637 194.694 82.7662 193.992C81.825 193.369 80.135 193.038 77.7 193ZM80.8562 194.261C82.7937 194.338 83.79 194.669 83.8425 195.255L83.7637 195.447L80.8562 194.261ZM79.0037 195.863C80.3325 195.844 81.025 196.188 81.0937 196.913L81.2887 196.898L81.25 196.414L81.46 196.402C81.97 196.669 82.2437 197 82.27 197.394C82.2962 197.662 82.1525 197.995 81.8262 198.39C81.695 198.402 81.6162 198.312 81.6037 198.121L81.3937 198.136L81.3425 198.708C80.465 199.982 79.8362 200.632 79.4425 200.671C79.0887 201.141 78.865 201.385 78.7737 201.397C78.4987 201.715 77.7537 202.263 76.5237 203.026C76.1175 203.065 74.61 203.626 72.0037 204.734C71.8738 204.674 71.7288 204.652 71.5862 204.671L71.5712 204.492C71.5462 204.122 71.705 203.664 72.0837 203.103C72.2812 202.057 72.5025 201.459 72.7512 201.319L74.9237 196.568C74.8987 196.275 75.3575 196.045 76.3125 195.893L76.6275 195.867L76.6525 196.135C77.2321 196.046 77.813 195.965 78.395 195.892C78.5975 195.876 78.8005 195.866 79.0037 195.863ZM83.5275 196.337H83.5612C83.735 196.352 83.9212 196.657 84.1187 197.242L84.1312 197.421C84.025 197.433 83.8312 197.127 83.5425 196.516L83.5275 196.337ZM71.2325 199.357H71.3225L71.35 199.637C71.2575 199.649 71.1287 199.778 70.9712 200.046L70.9562 199.856C71.14 199.639 71.2312 199.471 71.2312 199.357H71.2325ZM65 199.512L65.0125 199.599C64.9462 199.599 64.8425 199.651 64.7125 199.715L64.6062 199.727L64.5937 199.549L65 199.512ZM70.3562 201.343L70.395 201.726L70.29 201.739L70.2512 201.358L70.3562 201.343ZM70.1062 202.033C70.0812 202.351 70.0012 202.516 69.8312 202.529L69.7262 202.541C69.8437 202.325 69.91 202.173 69.8975 202.058L70.1062 202.033ZM69.675 203.025L69.6875 203.115L69.5037 203.419L69.3062 203.434L69.2937 203.344C69.49 203.332 69.5825 203.231 69.5687 203.04L69.675 203.025ZM69.2275 203.919L69.1775 204.389L69.0712 204.401L69.0337 203.93L69.2275 203.919ZM79.8487 204.26L80.28 204.518C80.2925 204.644 80.2275 204.721 80.0975 204.733C79.9137 204.619 79.77 204.567 79.665 204.567L79.6387 204.288L79.8487 204.26ZM71.5325 205.343L71.5475 205.522L71.14 205.562L71.1275 205.382L71.5325 205.343ZM78.2362 206.006C78.5237 206.134 78.67 206.262 78.6837 206.363L78.6962 206.454C78.4212 206.478 78.1712 206.338 77.9362 206.033L78.2362 206.006ZM81.4862 206.313C81.7087 206.403 81.8125 206.493 81.8262 206.581L81.8912 207.332C81.8 207.536 81.7087 207.638 81.6037 207.638L81.4862 206.313ZM76.2425 206.392C77.2925 206.375 78.095 206.616 78.645 207.128L78.6825 207.511C78.2125 208.836 77.6887 209.601 77.1262 209.843L74.5062 211.87C72.5562 213.117 71.5062 213.74 71.35 213.752C68.2462 215.422 66.31 216.276 65.5625 216.339L65.4437 216.351C65.5487 215.995 66.925 213.244 69.5962 208.071C70.775 207.969 72.6337 207.433 75.1612 206.466L75.7762 206.415C75.9362 206.403 76.0925 206.395 76.2425 206.392ZM72.4237 206.988L72.4362 207.078L72.0187 207.115L72.0037 207.025L72.4237 206.988ZM65.8912 213.154C65.76 213.805 65.615 214.137 65.4712 214.15L65.4587 214.059C65.4325 213.728 65.5762 213.435 65.8912 213.154ZM74.7675 213.563L74.78 213.741C74.7925 213.818 74.4925 214.059 73.9037 214.48C72.1612 215.308 71.1412 215.881 70.8387 216.174C68.9537 216.81 68.0237 217.206 68.0362 217.358C66.3612 218.009 65.2612 218.481 64.7387 218.774C64.62 218.786 64.4375 218.736 64.2012 218.634C64.175 218.303 64.3175 218.033 64.6575 217.817C64.945 217.793 65.2362 217.83 65.4975 217.946C65.8112 217.793 66.3475 217.613 67.1212 217.435L67.1062 217.245L66.4912 217.294C66.57 217.193 67.16 216.925 68.2862 216.479L68.6 216.455L68.6125 216.544C68.0887 216.582 67.7875 216.747 67.7212 217.014C67.7337 217.129 67.8012 217.193 67.9312 217.181C68.3112 216.925 68.5075 216.787 68.5075 216.748C69.2675 216.608 71.35 215.538 74.7675 213.563ZM65.2875 214.442L65.3 214.529C65.3125 214.657 65.2475 214.736 65.1162 214.748L65.1037 214.658C65.0912 214.543 65.1562 214.467 65.2875 214.442ZM70 215.581C70.1112 215.579 70.1737 215.641 70.185 215.741C69.9362 215.766 69.4775 215.957 68.7837 216.339L68.6787 216.351L68.6662 216.162C69.1513 216.131 69.6077 215.927 69.9487 215.59C69.9662 215.586 69.9837 215.583 69.9987 215.581H70ZM65.42 217.093L65.4325 217.193C65.3525 217.193 65.26 217.245 65.1287 217.309L64.9337 217.321C64.9212 217.232 64.9737 217.155 65.105 217.116L65.42 217.093ZM63.0225 218.252L63.2437 218.34C63.165 218.913 62.9962 219.207 62.6937 219.233C62.4941 219.139 62.2738 219.095 62.0525 219.105L62.0262 218.825C62.0137 218.71 62.08 218.646 62.2237 218.609C62.355 218.596 62.4325 218.683 62.4462 218.874C62.7987 218.454 62.9975 218.252 63.0225 218.252Z" fill="black"/>
</g>
<g clip-path="url(#clip1_116_102)">
<path d="M48.8936 223.727C48.932 224.355 48.7826 224.98 48.4645 225.523C48.1463 226.066 47.6738 226.501 47.1071 226.775C46.5404 227.048 45.9053 227.146 45.2825 227.057C44.6597 226.968 44.0775 226.696 43.61 226.275C43.1426 225.854 42.8111 225.303 42.6577 224.693C42.5043 224.083 42.536 223.441 42.7487 222.849C42.9614 222.257 43.3456 221.741 43.8523 221.369C44.3589 220.996 44.9651 220.782 45.5936 220.755C46.0058 220.732 46.4183 220.791 46.8076 220.928C47.1968 221.065 47.5551 221.278 47.8618 221.555C48.1685 221.831 48.4175 222.165 48.5946 222.538C48.7717 222.911 48.8733 223.315 48.8936 223.727Z" fill="black"/>
<path d="M30.4108 260.334C21.9984 260.334 14.6046 257.315 10.7818 252.856C12.2652 256.867 14.9417 260.327 18.4511 262.771C21.9605 265.215 26.1344 266.525 30.4109 266.525C34.6874 266.525 38.8613 265.215 42.3707 262.771C45.8801 260.327 48.5567 256.867 50.04 252.856C46.2264 257.315 38.8607 260.334 30.4108 260.334Z" fill="black"/>
<path d="M30.4108 231.341C38.8234 231.341 46.2171 234.359 50.04 238.818C48.5567 234.807 45.8801 231.347 42.3707 228.903C38.8613 226.459 34.6874 225.149 30.4109 225.149C26.1344 225.149 21.9605 226.459 18.4511 228.903C14.9417 231.347 12.2652 234.807 10.7818 238.818C14.6048 234.35 21.9611 231.341 30.4108 231.341Z" fill="black"/>
<path d="M18.8301 269.01C18.882 269.99 18.5675 270.955 17.9478 271.716C17.3281 272.477 16.4476 272.98 15.4773 273.128C14.5071 273.275 13.5166 273.057 12.6985 272.515C11.8804 271.973 11.2932 271.146 11.051 270.195C10.8088 269.244 10.929 268.237 11.3882 267.369C11.8475 266.502 12.6129 265.837 13.5356 265.502C14.4583 265.168 15.4724 265.189 16.3806 265.561C17.2887 265.933 18.0261 266.629 18.4492 267.515C18.6723 267.984 18.8017 268.492 18.8301 269.01Z" fill="black"/>
<path d="M11.7375 230.324C11.2843 230.337 10.8375 230.215 10.4533 229.974C10.0692 229.733 9.76477 229.384 9.57842 228.971C9.39208 228.558 9.3321 228.098 9.40603 227.651C9.47996 227.204 9.68449 226.788 9.99391 226.457C10.3033 226.125 10.7038 225.893 11.145 225.788C11.5863 225.684 12.0485 225.712 12.4736 225.87C12.8988 226.028 13.2678 226.307 13.5344 226.674C13.801 227.041 13.9532 227.478 13.9719 227.931C13.9896 228.544 13.7649 229.139 13.3466 229.587C12.9282 230.035 12.35 230.3 11.7375 230.324Z" fill="black"/>
</g>
<path d="M146.625 83.875H165.375C167.438 83.875 169.125 85.5625 169.125 87.625V106.375C169.125 108.438 167.438 110.125 165.375 110.125H146.625C144.562 110.125 142.875 108.438 142.875 106.375V87.625C142.875 85.5625 144.562 83.875 146.625 83.875Z" fill="black"/>
<path d="M166.781 97C166.781 95.5 165 94.2812 162.375 93.4375C163.031 90.7187 162.75 88.5625 161.531 87.9063C161.156 87.7188 160.875 87.625 160.5 87.625C159.281 87.625 157.781 88.4687 156.281 89.9688C154.687 88.4687 153.187 87.625 151.969 87.625C151.594 87.625 151.219 87.7188 150.938 87.9063C149.719 88.5625 149.437 90.7187 150.094 93.4375C147.469 94.2812 145.688 95.5 145.688 97C145.688 98.5 147.469 99.7187 150.094 100.562C149.437 103.281 149.625 105.437 150.938 106.187C151.219 106.375 151.594 106.469 151.969 106.469C153.187 106.469 154.688 105.625 156.188 104.125C157.688 105.625 159.281 106.469 160.406 106.469C160.781 106.469 161.156 106.375 161.437 106.187C162.656 105.437 162.938 103.281 162.281 100.562C165 99.7187 166.781 98.4062 166.781 97ZM160.5 88.6562C160.687 88.6562 160.875 88.6562 160.969 88.75C161.531 89.125 161.813 90.3438 161.625 91.9375C161.531 92.3125 161.531 92.7812 161.437 93.1562C160.594 92.9687 159.656 92.7812 158.719 92.6875C158.156 91.9375 157.594 91.1875 157.031 90.625C158.344 89.3125 159.656 88.6562 160.5 88.6562ZM159.094 98.6875C158.812 99.25 158.437 99.7187 158.156 100.281C157.5 100.281 156.937 100.375 156.281 100.375C155.625 100.375 154.969 100.375 154.406 100.281C154.031 99.8125 153.75 99.25 153.469 98.6875C153.188 98.125 152.906 97.5625 152.625 97C152.906 96.4375 153.188 95.875 153.469 95.3125C153.75 94.75 154.125 94.1875 154.5 93.7188C155.062 93.7188 155.719 93.625 156.375 93.625C157.031 93.625 157.594 93.625 158.25 93.7188C158.625 94.1875 158.906 94.75 159.281 95.3125C159.563 95.875 159.844 96.4375 160.125 97C159.75 97.5625 159.375 98.125 159.094 98.6875ZM160.5 98.2187C160.687 98.7812 160.875 99.25 161.062 99.8125C160.5 99.9063 159.938 100 159.375 100.094C159.563 99.8125 159.75 99.5312 159.938 99.1562C160.125 98.875 160.312 98.5 160.5 98.2187ZM156.188 102.625C155.813 102.25 155.438 101.781 155.062 101.313C155.438 101.313 155.813 101.313 156.188 101.313C156.563 101.313 156.937 101.313 157.312 101.313C156.937 101.781 156.563 102.25 156.188 102.625ZM153 100.094C152.438 100 151.875 99.9063 151.312 99.8125C151.5 99.25 151.688 98.7812 151.875 98.2187C152.063 98.5 152.25 98.875 152.437 99.1562C152.625 99.5312 152.813 99.8125 153 100.094ZM151.969 95.7812C151.781 95.2187 151.594 94.6562 151.406 94.1875C151.969 94.0937 152.531 94 153.094 93.9062C152.906 94.1875 152.719 94.5625 152.531 94.8437C152.25 95.125 152.062 95.5 151.969 95.7812ZM156.188 91.375C156.563 91.75 156.937 92.2187 157.312 92.6875C156.937 92.6875 156.563 92.6875 156.188 92.6875C155.813 92.6875 155.438 92.6875 155.062 92.6875C155.438 92.2187 155.813 91.75 156.188 91.375ZM159.938 94.8437C159.75 94.4687 159.563 94.1875 159.375 93.9062C159.938 94 160.5 94.0937 161.062 94.1875C160.875 94.75 160.687 95.3125 160.5 95.7812C160.312 95.5 160.125 95.125 159.938 94.8437ZM150.844 91.9375C150.656 90.3438 150.844 89.125 151.5 88.75C151.594 88.6562 151.781 88.6562 151.969 88.6562C152.812 88.6562 154.125 89.3125 155.531 90.7188C154.969 91.375 154.406 92.0312 153.844 92.7812C152.906 92.875 151.969 93.0625 151.125 93.25C150.938 92.7812 150.844 92.3125 150.844 91.9375ZM149.156 99.0625C147.656 98.4063 146.719 97.6562 146.719 96.9062C146.719 96.25 147.656 95.4063 149.156 94.75C149.531 94.5625 149.906 94.4687 150.375 94.375C150.656 95.2187 150.937 96.0625 151.312 96.9062C150.937 97.75 150.563 98.5938 150.375 99.4375C149.906 99.4375 149.531 99.25 149.156 99.0625ZM151.5 105.25C150.937 104.875 150.656 103.656 150.844 102.062C150.938 101.687 150.938 101.219 151.125 100.75C151.969 100.938 152.813 101.125 153.75 101.219C154.313 101.969 154.875 102.719 155.531 103.375C154.125 104.687 152.812 105.438 151.969 105.438C151.781 105.344 151.594 105.344 151.5 105.25ZM161.625 102.062C161.813 103.656 161.625 104.875 160.969 105.25C160.875 105.344 160.687 105.344 160.5 105.344C159.656 105.344 158.344 104.688 156.938 103.281C157.5 102.625 158.156 101.969 158.719 101.125C159.656 101.031 160.594 100.937 161.344 100.656C161.438 101.219 161.531 101.687 161.625 102.062ZM163.312 99.0625C162.937 99.25 162.562 99.3438 162.094 99.5313C161.812 98.6875 161.531 97.8437 161.156 97C161.531 96.1563 161.906 95.2188 162.094 94.4688C162.562 94.5625 162.937 94.75 163.312 94.8437C164.812 95.5 165.75 96.25 165.75 97C165.75 97.6562 164.812 98.5 163.312 99.0625Z" fill="white"/>
<path d="M156.281 98.9688C157.406 98.9688 158.25 98.125 158.25 97C158.25 95.875 157.406 95.0312 156.281 95.0312C155.156 95.0312 154.312 95.875 154.312 97C154.312 98.125 155.156 98.9688 156.281 98.9688Z" fill="white"/>
<path d="M187.8 146.029L190.202 172.978L200.984 175.971L211.795 172.973L214.2 146.029H187.8ZM209.189 152.425L209.038 154.1L208.972 154.843H208.961H201H200.988H196.324L196.627 158.228H200.988H201H207.781H208.671L208.591 159.115L207.814 167.817L207.764 168.374L201 170.249V170.25L200.985 170.254L194.214 168.375L193.751 163.185H195.281H197.069L197.305 165.821L200.985 166.815L200.988 166.814V166.814L204.675 165.819L205.058 161.533H201H200.988H193.604L192.791 152.425L192.712 151.538H200.989H201H209.268L209.189 152.425Z" fill="black"/>
<g clip-path="url(#clip2_116_102)">
<path d="M84.0001 116C81.9482 116 80.1841 116.554 78.7993 117.741C77.4245 118.919 76.5252 120.635 76.0263 122.773C75.9174 123.239 76.1548 123.718 76.5924 123.913C77.0299 124.108 77.5446 123.966 77.8193 123.573C78.4526 122.669 79.0849 122.125 79.6924 121.846C80.2808 121.576 80.915 121.521 81.6414 121.716C82.3745 121.912 82.9419 122.487 83.8329 123.456L83.8616 123.488C84.5332 124.218 85.3525 125.109 86.473 125.801C87.6357 126.518 89.0826 127 91.0002 127C93.052 127 94.8162 126.446 96.201 125.259C97.5756 124.081 98.475 122.365 98.974 120.227C99.0828 119.761 98.8454 119.282 98.4078 119.087C97.9704 118.892 97.4556 119.034 97.1808 119.427C96.5476 120.331 95.9154 120.875 95.3078 121.154C94.7194 121.424 94.0852 121.479 93.3588 121.284C92.6258 121.088 92.0582 120.513 91.1674 119.544L91.1386 119.512C90.467 118.782 89.6478 117.891 88.5272 117.199C87.3645 116.482 85.9177 116 84.0001 116Z" fill="black"/>
<path d="M77.0001 125C74.9482 125 73.1841 125.554 71.7993 126.741C70.4245 127.919 69.5252 129.635 69.0263 131.773C68.9174 132.239 69.1548 132.718 69.5924 132.913C70.0299 133.108 70.5446 132.966 70.8193 132.573C71.4526 131.669 72.0849 131.125 72.6924 130.846C73.2808 130.576 73.9149 130.521 74.6414 130.716C75.3745 130.912 75.9419 131.487 76.8329 132.456L76.8616 132.488C77.5332 133.218 78.3525 134.109 79.473 134.801C80.6357 135.518 82.0826 136 84.0001 136C86.052 136 87.8162 135.446 89.201 134.259C90.5756 133.081 91.475 131.365 91.974 129.227C92.0828 128.761 91.8454 128.282 91.4078 128.087C90.9704 127.892 90.4556 128.034 90.1808 128.427C89.5476 129.331 88.9154 129.875 88.3078 130.154C87.7195 130.424 87.0853 130.479 86.3588 130.284C85.6258 130.088 85.0583 129.513 84.1674 128.544L84.1386 128.512C83.467 127.782 82.6478 126.891 81.5272 126.199C80.3645 125.482 78.9177 125 77.0001 125Z" fill="black"/>
</g>
<g clip-path="url(#clip3_116_102)">
<path d="M185.131 203.552L174.5 180.975C174.231 180.409 173.673 180.036 173.047 180.004C172.42 179.962 171.821 180.272 171.494 180.809L159.963 199.485C159.605 200.06 159.613 200.791 159.983 201.359L165.62 210.09C166.058 210.763 166.887 211.067 167.656 210.838L184.016 205.999C184.515 205.854 184.925 205.499 185.142 205.027C185.356 204.558 185.352 204.018 185.132 203.551L185.131 203.552ZM182.751 204.52L168.869 208.625C168.445 208.751 168.039 208.384 168.127 207.957L173.087 184.208C173.179 183.764 173.793 183.694 173.987 184.105L183.168 203.602C183.251 203.778 183.252 203.981 183.171 204.158C183.091 204.334 182.937 204.467 182.75 204.52H182.751Z" fill="black"/>
</g>
<path d="M54 143.058C44.125 143.058 36.1167 145.733 36.1167 149.05V153.958C36.1167 157.292 44.125 159.95 54 159.95C63.875 159.95 71.875 157.275 71.875 153.958V149.05C71.8833 145.733 63.875 143.058 54 143.058Z" fill="black"/>
<path d="M54 162.817C44.5667 162.817 36.8 160.375 36.1167 157.267C36.1167 157.417 36.1167 165.392 36.1167 165.392C36.1167 168.725 44.125 171.375 54 171.375C63.875 171.375 71.875 168.7 71.875 165.392C71.875 165.392 71.875 157.417 71.875 157.267C71.1917 160.375 63.4333 162.817 54 162.817Z" fill="black"/>
<path d="M71.8667 168.833C71.1833 171.933 63.4333 174.383 54.0083 174.383C44.5833 174.383 36.8083 171.933 36.125 168.833V176.958C36.125 180.292 44.1333 182.942 54.0083 182.942C63.8833 182.942 71.8833 180.267 71.8833 176.958L71.8667 168.833Z" fill="black"/>
<g clip-path="url(#clip4_116_102)">
<path d="M226.932 108.599C224.589 108.599 222.9 110.127 222.9 112.419C222.9 114.711 224.801 116.239 227.144 116.239C228.56 116.239 229.808 115.679 230.58 114.734L228.957 113.796C228.528 114.265 227.876 114.539 227.144 114.539C226.128 114.539 225.264 114.008 224.944 113.159H230.89C230.937 112.922 230.964 112.676 230.964 112.417C230.964 110.127 229.275 108.599 226.932 108.599ZM224.924 111.676C225.19 110.829 225.916 110.297 226.93 110.297C227.947 110.297 228.672 110.829 228.935 111.676H224.924ZM249.784 108.599C247.441 108.599 245.752 110.127 245.752 112.419C245.752 114.711 247.654 116.239 249.997 116.239C251.412 116.239 252.66 115.679 253.433 114.734L251.809 113.796C251.38 114.265 250.729 114.539 249.997 114.539C248.98 114.539 248.116 114.008 247.796 113.159H253.742C253.789 112.922 253.817 112.676 253.817 112.417C253.817 110.127 252.127 108.599 249.784 108.599ZM247.779 111.676C248.044 110.829 248.77 110.297 249.784 110.297C250.801 110.297 251.527 110.829 251.79 111.676H247.779ZM239.496 112.419C239.496 113.692 240.328 114.541 241.618 114.541C242.492 114.541 243.148 114.144 243.486 113.497L245.115 114.437C244.441 115.562 243.176 116.239 241.618 116.239C239.273 116.239 237.586 114.711 237.586 112.419C237.586 110.127 239.275 108.599 241.618 108.599C243.176 108.599 244.438 109.276 245.115 110.4L243.486 111.341C243.148 110.693 242.492 110.297 241.618 110.297C240.33 110.297 239.496 111.145 239.496 112.419ZM257 106.264V116.027H255.09V106.264H257ZM204.842 105.203L212.683 118.785H197L204.842 105.203ZM224.447 106.264L218.566 116.451L212.685 106.264H214.89L218.566 112.631L222.242 106.264H224.447ZM236.949 108.811V110.867C236.737 110.806 236.512 110.763 236.27 110.763C235.037 110.763 234.148 111.612 234.148 112.886V116.027H232.238V108.811H234.148V110.763C234.148 109.685 235.402 108.811 236.949 108.811Z" fill="black"/>
</g>
<path d="M69.875 238.769C69.875 233.396 69.875 230.719 71.2435 228.828C71.6847 228.221 72.2183 227.688 72.8248 227.246C74.7108 225.875 77.3974 225.875 82.7679 225.875H97.2306C102.604 225.875 105.288 225.875 107.172 227.242C107.779 227.683 108.312 228.217 108.754 228.823C110.125 230.711 110.125 233.396 110.125 238.769V253.231C110.125 258.603 110.125 261.288 108.757 263.172C108.316 263.779 107.782 264.313 107.175 264.754C105.289 266.125 102.604 266.125 97.2306 266.125H82.7679C77.3974 266.125 74.7179 266.125 72.8276 264.757C72.2207 264.316 71.6871 263.782 71.2464 263.175C69.875 261.289 69.875 258.603 69.875 253.231V238.769Z" fill="url(#paint0_linear_116_102)"/>
<path d="M97.1501 245.359C98.0955 245.359 99.0198 245.079 99.806 244.554C100.592 244.029 101.205 243.283 101.567 242.409C101.929 241.536 102.024 240.575 101.84 239.648C101.655 238.72 101.2 237.868 100.532 237.2C99.8634 236.531 99.0118 236.076 98.0846 235.891C97.1574 235.707 96.1962 235.801 95.3228 236.163C94.4493 236.525 93.7028 237.137 93.1775 237.924C92.6522 238.71 92.3719 239.634 92.3719 240.579C92.3719 241.847 92.8752 243.062 93.7713 243.958C94.6674 244.855 95.8827 245.358 97.1501 245.359Z" fill="white"/>
<path d="M80.3918 239.975C80.2836 239.013 80.3846 238.039 80.6879 237.119C80.9479 236.61 81.3619 236.197 81.8709 235.937C82.7909 235.636 83.765 235.535 84.7273 235.643H88.5223V253.252C88.5971 254.055 88.5269 254.866 88.3153 255.644C88.0393 256.307 87.5122 256.834 86.849 257.11C86.0702 257.321 85.2602 257.39 84.457 257.316C83.6538 257.39 82.8438 257.321 82.065 257.11C81.4018 256.834 80.8747 256.307 80.5988 255.644C80.3886 254.865 80.319 254.055 80.3932 253.252L80.3918 239.975Z" fill="white"/>
<g clip-path="url(#clip5_116_102)">
<path fill-rule="evenodd" clip-rule="evenodd" d="M213.232 269.374C211.786 269.374 210.616 268.198 210.616 266.745C210.616 265.291 211.786 264.118 213.232 264.118C214.678 264.118 215.848 265.291 215.848 266.745C215.848 268.198 214.678 269.374 213.232 269.374ZM205.216 274C220.45 274 219.499 267.36 219.499 267.36L219.481 260.481H204.946V258.416H225.253C225.253 258.416 235 259.528 235 244.079C235 228.63 226.495 229.174 226.495 229.174H221.416V236.346C221.416 236.346 221.689 244.895 213.046 244.895H198.628C198.628 244.895 190.528 244.766 190.528 252.767V265.993C190.528 265.993 189.298 274 205.216 274ZM196.771 218.626C198.217 218.626 199.384 219.802 199.384 221.255C199.384 222.709 198.217 223.882 196.771 223.882C195.325 223.882 194.155 222.709 194.155 221.255C194.155 219.802 195.325 218.626 196.771 218.626ZM204.784 214C189.553 214 190.504 220.64 190.504 220.64L190.522 227.519H205.057V229.584H184.747C184.747 229.584 175 228.472 175 243.921C175 259.37 183.508 258.826 183.508 258.826H188.584V251.654C188.584 251.654 188.311 243.105 196.957 243.105H211.372C211.372 243.105 219.472 243.234 219.472 235.233V222.007C219.472 222.007 220.702 214 204.784 214Z" fill="black"/>
</g>
<path d="M55.7513 96.5301L41.7882 121.499C41.4998 122.014 40.7592 122.017 40.4665 121.504L26.2266 96.5324C25.9078 95.9733 26.3857 95.2962 27.0192 95.4094L40.9974 97.9079C41.0866 97.9239 41.1779 97.9237 41.267 97.9075L54.9529 95.413C55.5842 95.2979 56.0645 95.9699 55.7513 96.5301Z" fill="url(#paint1_linear_116_102)"/>
<path d="M47.6559 92.1323L37.3228 94.157C37.2402 94.1732 37.1653 94.2163 37.11 94.2797C37.0546 94.3431 37.0219 94.423 37.0169 94.507L36.3813 105.242C36.3664 105.495 36.5986 105.691 36.8453 105.634L39.7222 104.971C39.9915 104.908 40.2347 105.146 40.1793 105.416L39.3246 109.602C39.2671 109.883 39.5315 110.124 39.8066 110.041L41.5835 109.501C41.859 109.417 42.1237 109.659 42.0655 109.941L40.7072 116.515C40.6222 116.926 41.1691 117.15 41.3973 116.798L41.5496 116.563L49.9696 99.7589C50.1106 99.4775 49.8676 99.1567 49.5584 99.2163L46.5972 99.7879C46.3189 99.8415 46.0821 99.5824 46.1607 99.3101L48.0935 92.6099C48.1721 92.3371 47.9345 92.0777 47.6559 92.1323Z" fill="url(#paint2_linear_116_102)"/>
<g clip-path="url(#clip6_116_102)">
<path fill-rule="evenodd" clip-rule="evenodd" d="M35 6C51.569 6 65 19.7698 65 36.7588C65 50.3458 56.414 61.8719 44.501 65.9429C42.98 66.2459 42.44 65.2853 42.44 64.4663C42.44 63.4523 42.476 60.1404 42.476 56.0244C42.476 53.1564 41.516 51.2846 40.439 50.3306C47.12 49.5686 54.14 46.9673 54.14 35.1533C54.14 31.7933 52.976 29.0515 51.05 26.8975C51.362 26.1205 52.391 22.9919 50.756 18.7559C50.756 18.7559 48.242 17.9317 42.515 21.9097C40.118 21.2287 37.55 20.886 35 20.874C32.45 20.886 29.885 21.2287 27.491 21.9097C21.758 17.9317 19.238 18.7559 19.238 18.7559C17.609 22.9919 18.638 26.1205 18.947 26.8975C17.03 29.0515 15.857 31.7933 15.857 35.1533C15.857 46.9373 22.862 49.5785 29.525 50.3555C28.667 51.1235 27.89 52.4783 27.62 54.4673C25.91 55.2533 21.566 56.6136 18.89 51.9126C18.89 51.9126 17.303 48.9572 14.291 48.7412C14.291 48.7412 11.366 48.7024 14.087 50.6104C14.087 50.6104 16.052 51.5554 17.417 55.1104C17.417 55.1104 19.178 60.6002 27.524 58.7402C27.539 61.3112 27.566 63.7343 27.566 64.4663C27.566 65.2793 27.014 66.2308 25.517 65.9458C13.595 61.8808 5 50.3488 5 36.7588C5 19.7698 18.434 6 35 6Z" fill="black"/>
</g>
<path d="M126.913 28.8262C126.913 29.565 126.988 30.165 127.13 30.6075C127.288 31.0462 127.49 31.5262 127.768 32.0475C127.856 32.1852 127.904 32.345 127.906 32.5087C127.906 32.7075 127.786 32.91 127.531 33.1088L126.271 33.9488C126.12 34.0579 125.94 34.1205 125.754 34.1288C125.551 34.1288 125.353 34.0313 125.154 33.8513C124.884 33.5612 124.643 33.246 124.434 32.91C124.212 32.5252 124.007 32.1311 123.819 31.7288C122.259 33.57 120.305 34.4925 117.95 34.4925C116.274 34.4925 114.935 34.0087 113.96 33.0487C112.981 32.0887 112.483 30.8063 112.483 29.205C112.483 27.5025 113.083 26.1225 114.298 25.08C115.516 24.0375 117.133 23.52 119.188 23.52C119.863 23.52 120.564 23.58 121.303 23.6775C122.041 23.7788 122.803 23.94 123.598 24.12V22.6575C123.598 21.135 123.279 20.0738 122.66 19.455C122.023 18.8325 120.943 18.5325 119.405 18.5325C118.708 18.5325 117.991 18.615 117.253 18.795C116.519 18.9697 115.798 19.1965 115.096 19.4738C114.87 19.5763 114.637 19.664 114.399 19.7363C114.296 19.7703 114.188 19.7905 114.08 19.7962C113.799 19.7962 113.66 19.5938 113.66 19.1738V18.1913C113.66 17.8725 113.698 17.6288 113.799 17.4938C113.95 17.3098 114.143 17.1645 114.361 17.07C115.055 16.71 115.895 16.41 116.874 16.17C117.849 15.9075 118.888 15.7913 119.986 15.7913C122.36 15.7913 124.096 16.3313 125.214 17.4113C126.313 18.4913 126.871 20.1337 126.871 22.3387V28.8262H126.909H126.913ZM118.809 31.8675C119.465 31.8675 120.144 31.7475 120.864 31.5075C121.584 31.2675 122.221 30.825 122.758 30.225C123.079 29.8566 123.311 29.419 123.436 28.9463C123.556 28.4625 123.639 27.885 123.639 27.2025V26.3625C123.033 26.2156 122.42 26.1029 121.801 26.025C121.179 25.9446 120.553 25.9032 119.926 25.9013C118.588 25.9013 117.613 26.1638 116.953 26.7038C116.293 27.2437 115.978 28.005 115.978 29.0063C115.978 29.9438 116.214 30.645 116.713 31.1287C117.193 31.6275 117.89 31.8675 118.809 31.8675ZM134.833 34.0312C134.473 34.0312 134.233 33.9713 134.075 33.8288C133.914 33.7088 133.775 33.4312 133.655 33.0487L128.968 17.5725C128.876 17.313 128.816 17.0436 128.788 16.77C128.788 16.4513 128.945 16.2713 129.264 16.2713H131.221C131.596 16.2713 131.859 16.3313 131.998 16.47C132.159 16.59 132.279 16.8713 132.399 17.25L135.751 30.5063L138.864 17.25C138.961 16.8525 139.081 16.59 139.243 16.47C139.482 16.3234 139.761 16.254 140.041 16.2713H141.639C142.014 16.2713 142.276 16.3313 142.434 16.47C142.595 16.59 142.734 16.8713 142.816 17.25L145.966 30.6675L149.416 17.25C149.48 16.9597 149.619 16.691 149.818 16.47C150.05 16.323 150.323 16.2534 150.598 16.2713H152.454C152.773 16.2713 152.953 16.4325 152.953 16.77C152.953 16.8713 152.93 16.9725 152.915 17.0925C152.883 17.2627 152.835 17.4296 152.773 17.5913L147.961 33.0675C147.845 33.4688 147.703 33.7313 147.545 33.8513C147.319 33.9961 147.052 34.0657 146.784 34.05H145.07C144.691 34.05 144.433 33.99 144.271 33.8513C144.11 33.7088 143.971 33.45 143.893 33.0487L140.799 20.1375L137.724 33.0338C137.626 33.435 137.506 33.6938 137.349 33.8325C137.188 33.975 136.906 34.035 136.55 34.035H134.833V34.0312ZM160.475 34.5713C159.439 34.5726 158.407 34.4518 157.4 34.2113C156.403 33.9713 155.626 33.7088 155.105 33.4088C154.786 33.2288 154.569 33.03 154.486 32.8463C154.41 32.6697 154.371 32.4797 154.37 32.2875V31.2675C154.37 30.8475 154.528 30.645 154.828 30.645C154.95 30.6453 155.072 30.6655 155.188 30.705C155.308 30.7462 155.488 30.825 155.686 30.9075C156.361 31.2075 157.104 31.4475 157.88 31.6088C158.679 31.7663 159.455 31.8488 160.254 31.8488C161.514 31.8488 162.489 31.6275 163.168 31.1888C163.494 30.9914 163.761 30.7111 163.944 30.3764C164.126 30.0418 164.217 29.6648 164.206 29.2838C164.213 29.0265 164.169 28.7705 164.076 28.5304C163.983 28.2903 163.844 28.071 163.666 27.885C163.31 27.5025 162.631 27.1613 161.653 26.8425L158.758 25.9425C157.303 25.4813 156.223 24.7988 155.566 23.8988C154.924 23.0672 154.573 22.0471 154.569 20.9963C154.569 20.1563 154.749 19.4138 155.105 18.7725C155.465 18.135 155.945 17.5725 156.545 17.13C157.145 16.6725 157.82 16.3313 158.619 16.0913C159.418 15.8513 160.254 15.75 161.131 15.75C161.574 15.75 162.031 15.7688 162.47 15.8288C162.928 15.8888 163.348 15.9713 163.768 16.0538C164.165 16.1513 164.548 16.2488 164.904 16.3725C165.264 16.4925 165.541 16.6125 165.744 16.7325C165.979 16.8509 166.184 17.0215 166.344 17.2312C166.472 17.4265 166.534 17.658 166.52 17.8913V18.8325C166.52 19.2525 166.363 19.4738 166.063 19.4738C165.797 19.4434 165.54 19.3619 165.305 19.2338C164.099 18.6992 162.791 18.4331 161.473 18.4538C160.336 18.4538 159.436 18.6338 158.818 19.0163C158.199 19.3913 157.88 19.9763 157.88 20.7975C157.88 21.3563 158.079 21.8363 158.48 22.2188C158.878 22.5975 159.616 22.9763 160.674 23.3175L163.509 24.2175C164.945 24.6788 165.984 25.32 166.603 26.1413C167.221 26.9625 167.518 27.9038 167.518 28.9463C167.518 29.8088 167.341 30.585 167 31.2675C166.647 31.9524 166.151 32.5535 165.545 33.03C164.926 33.5287 164.188 33.8925 163.329 34.1513C162.429 34.4325 161.491 34.5713 160.475 34.5713Z" fill="black"/>
<path fill-rule="evenodd" clip-rule="evenodd" d="M164.244 44.2987C157.681 49.1625 148.141 51.7462 139.94 51.7462C128.446 51.7462 118.089 47.4825 110.266 40.395C109.648 39.8325 110.206 39.0712 110.941 39.5137C119.405 44.4375 129.841 47.4225 140.641 47.4225C147.92 47.4225 155.923 45.9 163.288 42.7762C164.386 42.2775 165.324 43.4962 164.244 44.2987Z" fill="black"/>
<path fill-rule="evenodd" clip-rule="evenodd" d="M166.978 41.1749C166.141 40.0987 161.431 40.6574 159.298 40.9162C158.66 40.9987 158.559 40.4362 159.136 40.0162C162.886 37.3724 169.055 38.1337 169.771 39.0149C170.491 39.9149 169.573 46.1024 166.059 49.0649C165.523 49.5262 165.005 49.2899 165.245 48.6899C166.04 46.7024 167.818 42.2399 166.978 41.1787V41.1749Z" fill="black"/>
<g clip-path="url(#clip7_116_102)">
<path d="M103.449 52.3831C104.325 51.8723 105.408 51.8723 106.283 52.3831L129.587 65.9769C130.451 66.4809 130.982 67.4059 130.982 68.4062V95.5938C130.982 96.5942 130.451 97.519 129.587 98.023L106.283 111.617C105.408 112.128 104.325 112.128 103.449 111.617L97.623 108.219C96.2813 107.436 95.8281 105.714 96.6108 104.372C97.3935 103.03 99.1156 102.577 100.457 103.36L104.866 105.931L125.357 93.9782V70.0217L104.866 58.0686L84.375 70.0217V93.9782L88.563 96.4214C89.8537 96.8354 91.4479 96.9366 92.5716 96.4401C93.0929 96.2099 93.5637 95.8349 93.9363 95.1651C94.3285 94.4601 94.6875 93.2868 94.6875 91.375V71.6875C94.6875 70.1342 95.9467 68.875 97.5 68.875C99.0533 68.875 100.312 70.1342 100.312 71.6875V91.375C100.312 93.9632 99.8289 96.1435 98.8518 97.8996C97.8552 99.691 96.43 100.885 94.8447 101.586C91.8211 102.921 88.4821 102.374 86.4375 101.639C86.2757 101.581 86.1197 101.508 85.9713 101.422L80.1454 98.023C79.2813 97.519 78.75 96.5942 78.75 95.5938V68.4062C78.75 67.4059 79.2813 66.4809 80.1454 65.9769L103.449 52.3831ZM105.925 71.8121C107.413 70.0405 109.737 68.875 112.891 68.875C115.818 68.875 118.047 69.8784 119.556 71.4743C120.623 72.6031 120.573 74.3832 119.443 75.4502C118.315 76.5172 116.535 76.4671 115.468 75.3382C115.139 74.9908 114.451 74.5 112.891 74.5C111.232 74.5 110.548 75.0532 110.232 75.4301C109.823 75.9165 109.688 76.5319 109.688 76.8438C109.688 77.1556 109.823 77.771 110.232 78.2574C110.548 78.6343 111.232 79.1875 112.891 79.1875C113.168 79.1875 113.436 79.2277 113.69 79.3027C116.013 79.6375 117.783 80.6794 118.997 82.1246C120.393 83.7866 120.86 85.7494 120.86 87.1562C120.86 88.5631 120.393 90.526 118.997 92.188C117.509 93.9595 115.185 95.125 112.031 95.125C109.104 95.125 106.875 94.1215 105.366 92.5259C104.299 91.3968 104.349 89.6166 105.478 88.5498C106.607 87.4828 108.387 87.533 109.454 88.6618C109.783 89.0092 110.471 89.5 112.031 89.5C113.69 89.5 114.374 88.9468 114.69 88.5699C115.099 88.0835 115.235 87.4681 115.235 87.1562C115.235 86.8444 115.099 86.229 114.69 85.7426C114.374 85.3657 113.69 84.8125 112.031 84.8125C111.754 84.8125 111.485 84.7723 111.232 84.6973C108.909 84.3625 107.139 83.3206 105.925 81.8754C104.529 80.2134 104.062 78.2506 104.062 76.8438C104.062 75.4369 104.529 73.4741 105.925 71.8121Z" fill="black"/>
</g>
<path d="M240.122 39.0499L235.88 85.0011L217.5 89.9501L199.119 85.0011L194.878 39.0499H240.122ZM231.574 48.3934H217.483H203.143L203.829 53.9424H217.483H218.25L217.483 54.2617L204.328 59.7408L204.764 65.1648L217.483 65.2061L224.3 65.2277L223.864 72.4599L217.483 74.2564V74.2507L217.431 74.2652L211.269 72.7096L210.895 68.2202H210.874H205.158H205.138L205.886 76.8869L217.483 80.3164V80.3102L217.504 80.3164L229.039 76.9494L230.535 59.7408H217.483H217.451L217.483 59.7268L231.013 53.9424L231.574 48.3934Z" fill="black"/>
<path fill-rule="evenodd" clip-rule="evenodd" d="M111.667 186.542C108.101 186.542 105.209 189.433 105.209 192.999C105.209 196.566 108.101 199.458 111.667 199.458H118.126V193.13C118.125 193.086 118.125 193.043 118.125 192.999C118.125 192.956 118.125 192.913 118.126 192.869V186.542H111.667ZM118.126 182.792H111.667C108.101 182.792 105.209 179.9 105.209 176.333C105.209 172.767 108.101 169.875 111.667 169.875H118.126V182.792ZM121.876 169.875V182.792L128.332 182.791C131.899 182.791 134.792 179.9 134.792 176.333C134.792 172.767 131.9 169.875 128.333 169.875H121.876ZM128.333 186.541C124.801 186.542 121.931 189.377 121.876 192.896V193.103C121.931 196.622 124.801 199.458 128.333 199.458C131.9 199.458 134.792 196.566 134.792 192.999C134.792 189.433 131.899 186.541 128.333 186.541ZM111.667 203.208C108.101 203.208 105.209 206.1 105.209 209.667C105.209 213.234 108.1 216.126 111.667 216.126C115.234 216.126 118.125 213.234 118.125 209.667L118.126 203.208H111.667Z" fill="black"/>
<g clip-path="url(#clip8_116_102)">
<path d="M154.531 251C154.044 251.002 153.563 251.105 153.125 251.301L148.422 247H144.688V249H147.516L151.579 252.715C151.365 253.115 151.253 253.554 151.25 254C151.25 254.593 151.442 255.173 151.803 255.667C152.164 256.16 152.676 256.545 153.276 256.772C153.875 256.999 154.535 257.058 155.171 256.942C155.808 256.827 156.393 256.541 156.851 256.121C157.31 255.702 157.623 255.167 157.749 254.585C157.876 254.003 157.811 253.4 157.563 252.852C157.314 252.304 156.894 251.835 156.354 251.506C155.815 251.176 155.18 251 154.531 251ZM154.531 255C154.315 255 154.103 254.941 153.924 254.831C153.744 254.722 153.604 254.565 153.521 254.383C153.438 254.2 153.416 253.999 153.459 253.805C153.501 253.611 153.605 253.433 153.758 253.293C153.911 253.153 154.106 253.058 154.318 253.019C154.53 252.981 154.75 253 154.95 253.076C155.15 253.152 155.32 253.28 155.441 253.444C155.561 253.609 155.625 253.802 155.625 254C155.625 254.265 155.509 254.519 155.304 254.707C155.099 254.894 154.821 255 154.531 255Z" fill="black"/>
<path d="M154.531 240C153.855 240.002 153.196 240.195 152.644 240.553C152.093 240.911 151.676 241.417 151.452 242H144.688V244H151.452C151.653 244.517 152.006 244.974 152.472 245.32C152.938 245.666 153.5 245.888 154.094 245.962C154.689 246.036 155.295 245.959 155.845 245.74C156.396 245.521 156.87 245.167 157.215 244.718C157.561 244.27 157.765 243.743 157.805 243.195C157.845 242.647 157.72 242.1 157.443 241.613C157.166 241.126 156.748 240.718 156.234 240.433C155.721 240.149 155.132 239.999 154.531 240ZM154.531 244C154.315 244 154.103 243.941 153.924 243.831C153.744 243.722 153.604 243.565 153.521 243.383C153.438 243.2 153.416 242.999 153.459 242.805C153.501 242.611 153.605 242.433 153.758 242.293C153.911 242.153 154.106 242.058 154.318 242.019C154.53 241.981 154.75 242 154.95 242.076C155.15 242.152 155.32 242.28 155.441 242.444C155.561 242.609 155.625 242.802 155.625 243C155.625 243.265 155.509 243.519 155.304 243.707C155.099 243.894 154.821 244 154.531 244Z" fill="black"/>
<path d="M154.531 229C153.661 229.001 152.827 229.317 152.212 229.88C151.597 230.442 151.251 231.205 151.25 232C151.254 232.479 151.384 232.95 151.631 233.373L147.527 237H144.688V239H148.411L153.222 234.748C153.669 234.926 154.154 235.011 154.641 234.996C155.129 234.981 155.606 234.867 156.039 234.662C156.472 234.458 156.85 234.167 157.145 233.812C157.44 233.457 157.644 233.046 157.744 232.61C157.843 232.174 157.835 231.722 157.72 231.289C157.604 230.856 157.385 230.452 157.077 230.106C156.769 229.76 156.381 229.482 155.941 229.29C155.5 229.099 155.019 229 154.531 229ZM154.531 233C154.315 233 154.103 232.941 153.924 232.831C153.744 232.722 153.604 232.565 153.521 232.383C153.438 232.2 153.416 231.999 153.459 231.805C153.501 231.611 153.605 231.433 153.758 231.293C153.911 231.153 154.106 231.058 154.318 231.019C154.53 230.981 154.75 231 154.95 231.076C155.15 231.152 155.32 231.28 155.441 231.444C155.561 231.609 155.625 231.802 155.625 232C155.625 232.265 155.509 232.519 155.304 232.707C155.099 232.894 154.821 233 154.531 233Z" fill="black"/>
<path d="M144.688 233H146.875V231H144.688C144.064 231.002 143.449 231.126 142.882 231.365C142.316 231.603 141.813 231.95 141.406 232.382C141 231.95 140.496 231.603 139.93 231.365C139.364 231.126 138.748 231.002 138.125 231H137.031C134.421 231.003 131.919 231.952 130.074 233.639C128.228 235.326 127.19 237.614 127.188 240V246C127.19 248.386 128.228 250.674 130.074 252.361C131.919 254.048 134.421 254.997 137.031 255H138.125C138.748 254.998 139.364 254.874 139.93 254.635C140.496 254.397 141 254.05 141.406 253.618C141.813 254.05 142.316 254.397 142.882 254.635C143.449 254.874 144.064 254.998 144.688 255H146.875V253H144.688C144.108 252.999 143.552 252.788 143.141 252.414C142.731 252.039 142.501 251.53 142.5 251V235C142.501 234.47 142.731 233.961 143.141 233.586C143.552 233.212 144.108 233.001 144.688 233ZM138.125 253H137.031C135.192 252.997 133.415 252.389 132.026 251.288C130.636 250.186 129.726 248.664 129.462 247H131.562V245H129.375V241H132.656C133.526 240.999 134.36 240.683 134.975 240.12C135.591 239.558 135.937 238.795 135.938 238V236H133.75V238C133.75 238.265 133.634 238.519 133.429 238.707C133.224 238.894 132.946 239 132.656 239H129.462C129.726 237.336 130.636 235.814 132.026 234.712C133.415 233.611 135.192 233.003 137.031 233H138.125C138.705 233.001 139.261 233.212 139.671 233.586C140.081 233.961 140.312 234.47 140.312 235V239H138.125V241H140.312V245H138.125C137.255 245.001 136.421 245.317 135.806 245.88C135.191 246.442 134.845 247.205 134.844 248V250H137.031V248C137.032 247.735 137.147 247.481 137.352 247.293C137.557 247.106 137.835 247 138.125 247H140.312V251C140.312 251.53 140.081 252.039 139.671 252.414C139.261 252.788 138.705 252.999 138.125 253Z" fill="black"/>
</g>
<path fill-rule="evenodd" clip-rule="evenodd" d="M230.698 189.051C230.605 188.184 231.331 188.552 231.238 189.074C231.102 189.213 230.85 189.099 230.698 189.051ZM231.562 188.888C231.745 188.868 231.919 188.839 231.973 188.679C231.72 188.512 231.342 188.925 231.497 189.12C231.584 189.113 231.507 188.93 231.562 188.888ZM229.142 189.422C229.294 189.346 229.544 189.375 229.617 189.213C229.164 189.044 228.348 189.169 228.213 189.492C228.558 189.469 228.847 189.174 229.142 189.422ZM228.126 189.515C228.028 189.493 227.99 189.613 228.04 189.677C228.116 189.675 228.127 189.601 228.126 189.515ZM227.888 189.979C227.875 189.758 227.376 189.581 227.327 189.886C227.37 190.06 227.772 190.171 227.888 189.979ZM227.046 189.77C226.943 189.776 226.89 189.835 226.83 189.886C226.908 189.935 227.082 189.918 227.046 189.77ZM226.786 190.397C227.167 190.368 227.283 190.744 227.607 190.699C227.668 190.294 226.894 189.737 226.786 190.397ZM231.929 192.416C231.816 192.012 232.163 191.664 231.951 191.348C231.657 191.374 231.402 192.84 231.821 192.834C232.122 192.83 232.228 191.943 232.254 191.65C232.033 191.785 232.129 192.259 231.929 192.416ZM228.321 192.254C228.327 192.193 228.291 192.178 228.234 192.184C228.236 192.247 228.284 192.296 228.321 192.254ZM229.38 192.927C229.384 192.783 229.378 192.65 229.272 192.625C229.19 192.615 229.195 192.698 229.142 192.718C229.172 192.841 229.232 192.931 229.38 192.927ZM228.342 193.67C228.757 193.72 229.034 194.041 229.423 194.041C229.113 193.817 228.791 193.606 228.299 193.577C228.283 193.64 228.342 193.624 228.342 193.67ZM231.605 194.018C231.573 193.859 231.509 193.734 231.433 193.623C231.461 193.786 231.499 193.938 231.605 194.018ZM229.228 194.528C228.957 194.139 228.525 193.799 228.04 193.716C228.108 194.339 228.753 194.343 229.228 194.528ZM228.494 194.668C228.308 194.333 227.991 194.14 227.607 194.018C227.823 194.305 228.02 194.734 228.494 194.668ZM227.499 194.343C227.573 194.48 227.759 194.621 227.716 194.807C227.526 194.747 227.434 194.583 227.24 194.528C227.343 194.682 227.736 195.363 227.975 195.341C228.127 195.327 228.196 195.146 228.169 194.854C228.053 194.584 227.681 194.465 227.499 194.343ZM228.602 194.946C228.65 195.088 228.667 195.263 228.839 195.271C228.81 195.109 228.722 195.01 228.602 194.946ZM228.45 195.016C228.37 195.007 228.324 195.034 228.321 195.109C228.345 195.114 228.354 195.134 228.364 195.155C228.433 195.152 228.459 195.103 228.45 195.016ZM232.146 195.55C232.168 195.419 232.191 195.166 232.146 195.039C232.118 195.169 232.013 195.463 232.146 195.55ZM230.633 195.062C230.649 195.199 230.588 195.42 230.698 195.457C230.703 195.355 230.725 195.127 230.633 195.062ZM231.649 195.596C231.586 195.536 231.496 195.627 231.454 195.573C231.41 195.419 231.428 195.199 231.303 195.132C231.289 195.132 231.274 195.132 231.26 195.132C231.082 195.528 231.099 196.378 231.411 196.594C231.47 196.701 231.475 196.865 231.627 196.873C231.752 196.767 231.782 196.56 231.8 196.339C231.529 196.278 231.781 195.777 231.649 195.596ZM232.297 195.851C232.324 195.646 232.487 195.347 232.362 195.132C232.32 195.335 232.242 195.622 232.297 195.851ZM228.494 196.037C228.528 195.931 228.501 195.751 228.429 195.689C228.378 195.791 228.349 196.025 228.494 196.037ZM228.883 196.13C228.97 196.191 228.976 196.338 229.099 196.362C229.251 196.154 228.962 195.786 228.883 196.13ZM232.578 196.594C232.578 196.665 232.491 196.763 232.556 196.826C232.569 196.769 232.634 196.649 232.578 196.594ZM232.772 197.499C232.771 197.392 232.784 197.27 232.729 197.221C232.719 197.304 232.662 197.487 232.772 197.499ZM230.028 198.451C230.041 198.538 230.054 198.624 230.136 198.637C230.189 198.557 230.15 198.416 230.028 198.451ZM231 198.567C231.03 198.629 231.117 198.75 231.173 198.706C231.123 198.667 231.065 198.514 231 198.567ZM233.053 198.823C232.992 199.099 233.136 199.351 233.248 199.519C233.293 199.249 233.289 198.864 233.053 198.823ZM233.593 200.609C233.626 200.539 233.638 200.323 233.572 200.285C233.515 200.369 233.464 200.569 233.593 200.609ZM234.566 201.724C234.534 201.553 234.41 201.369 234.285 201.375C234.329 201.545 234.336 201.754 234.566 201.724ZM234.76 202.049C234.761 202.156 234.748 202.278 234.804 202.327C234.806 202.216 234.805 202.109 234.76 202.049ZM227.629 202.072C227.629 202.157 227.672 202.196 227.716 202.234C227.707 202.158 227.697 202.084 227.629 202.072ZM235.538 203.348C235.485 202.911 235.271 202.646 234.998 202.443C235.037 202.896 235.244 203.17 235.538 203.348ZM239.018 205.646C239.004 205.633 238.915 205.592 238.909 205.646C238.942 205.673 239 205.728 239.018 205.646ZM249.974 207.364C249.974 207.449 249.974 207.534 249.974 207.619C249.939 207.698 249.927 207.801 249.909 207.898C249.308 208.312 248.179 208.159 247.683 208.687C246.813 208.183 246.004 208.976 245.09 209.058C244.939 209.072 244.771 209.045 244.614 209.058C244.074 209.105 243.546 209.241 242.994 209.29C242.427 209.341 241.859 209.378 241.265 209.406C241.049 209.406 240.833 209.406 240.617 209.406C237.936 209.255 235.286 208.868 233.313 207.921C232.328 207.449 231.423 206.869 230.59 206.18C229.779 205.51 228.947 204.764 228.364 203.929C227.743 203.039 227.121 202.174 226.57 201.19C226.039 200.241 225.542 199.241 225.101 198.126C224.666 197.027 224.356 195.939 224.063 194.598C223.872 193.721 223.67 192.728 223.329 191.906C223.196 191.586 223.041 191.323 223.026 191.024C223.026 190.954 223.026 190.884 223.026 190.815C223.133 189.84 223.839 189.274 224.669 189.004C224.876 188.937 225.078 188.872 225.274 188.749C225.286 188.741 225.411 188.727 225.36 188.656C224.991 188.561 224.686 189.145 224.28 188.981C223.919 188.835 224.127 188.235 224.517 188.053C224.7 187.968 225.062 187.946 225.23 187.844C225.521 187.669 225.652 187.299 225.598 186.962C225.566 186.763 225.373 186.658 225.382 186.498C225.394 186.274 225.766 186.079 225.944 185.941C226.161 185.771 226.418 185.559 226.397 185.291C226.376 185.011 226.069 184.922 225.922 184.71C225.691 184.379 225.654 183.883 226.03 183.689C226.424 183.485 227.158 183.596 227.24 184.13C227.313 184.601 227.002 184.78 227.132 185.128C227.375 185.776 229.263 184.75 228.796 186.103C229.211 186.802 230.834 186.204 230.871 187.31C231.547 187.325 231.858 187.876 232.405 188.099C232.551 188.159 232.726 188.159 232.88 188.215C233.802 188.552 234.944 188.913 235.322 189.863C234.98 190.11 234.514 189.945 234.112 189.794C233.763 189.662 233.253 189.401 232.902 189.561C232.554 189.721 232.572 190.36 232.621 191C232.751 192.705 232.827 194.464 233.053 195.991C233.369 198.122 234.045 199.828 234.998 201.167C235.92 202.461 237.004 203.817 238.412 204.764C239.601 205.563 240.936 206.194 242.626 206.598C242.877 206.658 243.18 206.789 243.318 206.76C243.522 206.718 243.961 206.081 244.118 205.925C244.489 205.554 244.989 205.034 245.522 205.484C245.45 206.102 244.933 206.245 244.809 206.807C245.129 207.026 245.468 206.828 245.868 206.853C246.333 206.883 246.689 207.169 247.078 207.108C247.327 207.07 247.451 206.871 247.64 206.737C248.069 207.411 249.725 206.534 249.974 207.364ZM245.284 205.646C245.275 205.571 245.313 205.446 245.241 205.438C245.179 205.471 245.117 205.685 245.284 205.646ZM234.415 189.306C234.626 189.442 234.813 189.606 234.998 189.77C235.11 189.418 234.789 189.192 234.415 189.213C234.415 189.244 234.415 189.275 234.415 189.306ZM240.228 206.412C240.31 206.431 240.37 206.448 240.379 206.343C240.302 206.337 240.25 206.358 240.228 206.412ZM237.245 204.37C237.238 204.479 237.443 204.481 237.483 204.462C237.45 204.39 237.347 204.296 237.245 204.37ZM236.727 203.929C236.763 203.968 236.854 203.947 236.921 203.952C236.929 203.867 236.897 203.823 236.878 203.766C236.765 203.753 236.733 203.827 236.727 203.929ZM232.578 194.435C232.519 194.382 232.477 194.48 232.448 194.435C232.518 193.86 232.632 192.973 232.405 192.486C232.349 192.433 232.26 192.504 232.232 192.463C232.383 192.076 232.485 191.269 232.427 190.792C232.406 190.623 232.325 190.324 232.232 190.258C232 190.091 231.788 190.347 231.627 190.397C231.526 190.429 231.413 190.406 231.303 190.42C230.867 190.477 230.405 190.616 230.114 190.768C230.266 190.877 230.48 190.917 230.546 191.116C230.17 191.088 229.876 190.97 229.552 190.884C229.587 191.408 228.989 191.244 228.623 191.279C228.75 191.282 228.77 191.348 228.775 191.441C228.79 191.749 227.846 192.115 227.521 191.883C227.058 192.283 227.725 192.693 227.694 193.206C227.603 193.278 227.561 193.403 227.478 193.484C227.018 193.496 226.534 193.595 226.613 194.111C226.551 194.072 226.453 194.046 226.376 194.087C226.258 194.413 226.455 194.766 226.722 194.83C226.789 194.809 226.804 194.733 226.894 194.737C227.495 194.861 227.707 195.289 227.672 196.107C227.666 196.247 227.679 196.431 227.586 196.525C227.245 196.499 226.929 195.595 227.478 195.573C227.346 195.365 227.246 195.054 227.002 195.062C226.723 195.071 226.597 195.546 226.397 195.712C226.685 195.883 227.361 196.355 226.808 196.664C227.082 196.708 227.235 196.825 227.348 196.989C227.537 197.262 227.531 197.672 227.672 197.894C227.959 198.343 228.11 197.491 228.45 197.847C228.53 197.877 228.415 197.763 228.407 197.755C228.115 197.416 227.67 197.139 227.499 196.733C227.63 196.669 227.806 196.739 227.931 196.757C227.981 196.484 227.805 196.175 227.867 195.967C227.911 195.818 227.994 195.884 228.083 195.828C228.135 195.795 228.094 195.673 228.191 195.712C228.19 196.031 228.012 196.567 228.212 196.803C228.506 196.859 228.59 196.318 228.839 196.316C228.978 196.314 229.11 196.577 229.206 196.71C229.323 196.87 229.481 197.066 229.444 197.244C229.366 197.619 228.78 197.333 228.58 197.174C228.702 197.694 229.453 197.775 229.487 198.451C229.491 198.526 229.456 198.623 229.466 198.706C229.508 199.063 229.818 199.328 230.136 199.101C230.182 199.229 230.188 199.4 230.309 199.449C230.414 199.353 230.377 199.104 230.438 198.961C230.815 199.046 231.012 199.241 231.13 199.565C231.188 199.725 231.173 200.022 231.411 200.029C231.447 199.633 231.158 199.388 231.108 199.008C231.302 199.343 232.001 199.707 231.973 200.238C231.954 200.589 231.566 200.627 231.195 200.679C231.549 200.81 231.697 201.236 232.081 201.375C232.184 201.413 232.316 201.381 232.426 201.422C232.707 201.527 233.156 202.145 233.031 202.536C232.434 202.86 231.967 201.985 231.303 202.002C231.583 202.386 232.041 202.514 232.426 202.699C232.841 202.897 233.256 203.101 233.658 203.302C234.606 203.775 235.264 204.395 235.884 205.182C235.454 205.434 234.149 205.015 234.933 204.718C234.66 204.708 234.372 204.524 234.133 204.625C234.26 205.511 235.345 205.367 236.165 205.507C236.09 205.659 235.985 205.778 235.906 205.925C235.969 205.965 236.056 205.979 236.165 205.971C236.112 206.062 235.976 206.062 235.97 206.203C236.075 206.353 236.283 206.393 236.424 206.505C236.98 206.077 237.042 207.047 237.397 207.062C237.732 207.075 237.796 206.558 238.131 206.505C238.047 206.693 237.882 206.794 237.807 206.992C238.136 206.907 238.229 206.717 238.499 206.644C239.464 206.382 240.255 207.245 241.049 207.341C241.334 207.375 241.618 207.547 241.87 207.596C242.195 207.659 242.396 207.544 242.648 207.41C242.264 207.025 241.383 207.175 241.07 206.714C241.082 206.634 241.133 206.596 241.178 206.551C240.167 206.79 239.53 206.139 239.104 205.53C237.856 205.184 236.761 204.673 236.23 203.557C236.204 203.452 236.325 203.505 236.295 203.395C235.856 202.87 235.417 202.338 235.063 201.724C234.94 201.511 234.856 201.245 234.717 201.074C234.629 200.965 234.481 200.906 234.393 200.795C234.297 200.674 234.284 200.522 234.133 200.47C234.076 200.563 234.114 200.759 234.069 200.865C233.965 200.417 233.733 199.991 233.291 199.983C233.283 199.657 233.528 199.603 233.658 199.426C233.486 199.204 233.445 198.925 233.356 198.59C233.138 197.777 232.958 196.927 232.772 196.176C232.526 196.275 232.46 196.568 232.34 196.803C232.352 196.468 232.366 196.135 232.534 195.967C232.611 195.978 232.62 196.061 232.664 196.107C232.705 195.948 232.844 195.801 232.772 195.596C232.716 195.503 232.553 195.547 232.513 195.55C232.619 195.269 232.709 194.761 232.578 194.435ZM241.265 208.2C241.452 208.114 241.62 208.008 241.697 207.805C241.494 207.859 241.207 207.942 241.265 208.2ZM241.286 207.735C241.161 207.81 241.021 207.868 240.941 207.991C241.12 208.002 241.33 207.809 241.286 207.735ZM240.617 208.083C240.739 208.048 240.87 207.913 240.854 207.805C240.712 207.82 240.493 207.929 240.617 208.083ZM240.703 207.549C240.509 207.483 240.35 207.647 240.336 207.851C240.509 207.805 240.626 207.699 240.703 207.549ZM240.098 207.596C239.908 207.632 239.766 207.718 239.709 207.898C239.941 207.996 240.06 207.782 240.098 207.596ZM239.795 208.2C239.849 208.203 239.9 208.204 239.904 208.153C239.871 208.116 239.78 208.119 239.795 208.2ZM240.141 207.201C239.839 207.176 239.477 207.387 239.666 207.666C239.867 207.557 240.071 207.451 240.141 207.201ZM238.65 207.642C238.839 207.671 238.888 207.439 239.018 207.48C239.093 207.531 239.047 207.711 239.169 207.712C239.451 207.65 239.553 207.236 239.385 206.946C239.004 207.018 238.655 207.243 238.65 207.642ZM238.736 207.039C238.622 207.101 238.5 207.156 238.434 207.271C238.575 207.264 238.786 207.097 238.736 207.039ZM238.132 207.155C238.144 207.217 238.043 207.273 238.11 207.317C238.128 207.288 238.241 207.173 238.132 207.155ZM237.743 207.712C237.736 207.744 237.712 207.756 237.721 207.805C237.75 207.805 237.779 207.805 237.808 207.805C237.813 207.744 237.799 207.705 237.743 207.712ZM237.418 207.596C237.309 207.603 237.268 207.682 237.267 207.805C237.361 207.782 237.447 207.751 237.418 207.596ZM235.236 206.412C235.102 206.406 235.062 206.428 235.214 206.459C235.359 206.488 235.615 206.503 235.711 206.459C235.597 206.457 235.302 206.416 235.236 206.412ZM235.884 206.041C235.771 205.949 235.544 206.016 235.43 206.064C235.496 206.257 235.817 206.171 235.884 206.041ZM235.193 207.782C235.732 208.085 236.474 208.416 237.245 208.315C236.685 208.02 235.851 207.895 235.193 207.782ZM234.393 207.526C234.445 207.602 234.567 207.603 234.652 207.642C234.812 207.477 234.461 207.384 234.393 207.526ZM232.362 205.646C232.216 205.66 232.057 205.659 232.016 205.786C232.155 205.841 232.356 205.807 232.362 205.646ZM231.951 206.25C232.002 206.299 232.095 206.358 232.124 206.25C232.102 206.225 231.97 206.202 231.951 206.25ZM232.21 204.277C232.23 204.18 232.058 204.143 232.038 204.23C232.085 204.257 232.126 204.29 232.21 204.277ZM232.491 205.066C232.49 205.034 232.502 205.015 232.513 204.996C232.449 204.925 232.318 204.912 232.21 204.95C232.228 205.062 232.401 205.108 232.491 205.066ZM232.513 206.552C232.541 206.583 232.615 206.583 232.643 206.552C232.653 206.479 232.616 206.457 232.578 206.435C232.558 206.477 232.526 206.503 232.513 206.552ZM233.183 203.882C233.113 203.664 232.883 203.721 232.729 203.65C232.482 203.536 232.27 203.263 231.951 203.256C231.937 203.256 231.922 203.256 231.908 203.256C232.186 203.607 232.553 203.985 233.183 203.882ZM232.059 203.024C231.857 202.876 231.636 202.75 231.346 202.699C231.438 202.948 231.798 203.033 232.059 203.024ZM232.729 204.114C232.881 204.284 233.071 204.413 233.399 204.393C233.273 204.211 232.971 204.094 232.729 204.114ZM233.55 205.159C233.328 204.993 232.978 204.725 232.686 204.787C232.855 205.024 233.194 205.201 233.55 205.159ZM232.729 206.041C232.724 206.074 232.693 206.08 232.686 206.11C232.739 206.185 232.819 206.057 232.729 206.041ZM233.226 206.737C233.244 206.826 233.324 206.849 233.399 206.876C233.428 206.823 233.486 206.799 233.464 206.691C233.411 206.657 233.222 206.637 233.226 206.737ZM233.637 205.716C233.57 205.672 233.326 205.623 233.269 205.716C233.374 205.762 233.58 205.88 233.637 205.716ZM233.701 204.927C233.723 204.754 233.541 204.753 233.464 204.81C233.471 204.927 233.614 204.897 233.701 204.927ZM233.939 203.673C233.842 203.515 233.57 203.543 233.377 203.488C233.236 203.297 232.898 203.228 232.599 203.279C232.941 203.523 233.33 203.717 233.939 203.673ZM233.896 205.902C233.989 205.988 234.134 206.017 234.263 206.064C234.27 206.009 234.297 205.977 234.285 205.902C234.222 205.824 233.949 205.783 233.896 205.902ZM232.059 202.141C232.081 202.033 232.021 202.012 231.929 202.025C231.897 202.146 232.005 202.115 232.059 202.141ZM232.578 202.42C232.515 202.403 232.536 202.295 232.448 202.304C232.368 202.382 232.512 202.502 232.578 202.42ZM231.087 202.583C231.015 202.412 230.853 202.338 230.741 202.211C230.952 201.883 230.482 201.749 230.395 201.515C230.394 201.444 230.441 201.425 230.46 201.375C230.278 201.261 230.069 201.177 229.963 200.981C230.047 200.916 230.269 201 230.352 200.934C230.221 200.874 230.08 200.825 230.028 200.679C230.104 200.49 230.412 200.55 230.482 200.354C230.109 200.266 229.739 200.054 229.336 200.076C229.341 200.241 229.478 200.264 229.531 200.377C229.411 200.32 229.314 200.238 229.142 200.238C229.129 200.353 229.198 200.379 229.185 200.494C229.067 200.504 229.007 200.452 228.882 200.47C228.971 200.684 229.2 200.748 229.271 200.981C229.183 201.005 229.063 200.943 229.034 200.981C229.262 201.185 229.595 201.399 229.725 201.631C229.513 201.588 229.391 201.448 229.185 201.399C229.358 201.766 229.778 201.843 230.093 202.025C230.414 202.212 230.702 202.514 231.087 202.583ZM230.611 202.861C230.702 202.914 230.881 203.082 231 202.954C230.9 202.906 230.742 202.798 230.611 202.861ZM230.438 202.745C230.378 202.639 230.067 202.583 229.985 202.652C230.126 202.696 230.259 202.813 230.438 202.745ZM230.049 202.815C230.043 202.846 230.019 202.859 230.028 202.908C230.066 202.894 230.155 202.935 230.158 202.884C230.124 202.858 230.112 202.809 230.049 202.815ZM229.769 199.728C229.71 199.509 229.631 199.27 229.466 199.101C229.377 199.01 229.291 199.011 229.228 198.892C229.061 198.576 229.141 198.131 228.926 197.801C228.875 197.783 228.776 197.755 228.731 197.801C228.735 197.953 229.064 198.314 228.839 198.497C228.342 198.519 228.151 198.094 227.673 198.172C227.565 198.472 227.946 198.626 227.845 198.846C228.533 199.083 229.079 199.596 229.769 199.728ZM228.213 200.424C228.34 200.528 228.523 200.694 228.688 200.679C228.557 200.58 228.437 200.346 228.213 200.424ZM227.975 200.215C227.919 200.028 227.822 199.885 227.607 199.867C227.651 200.068 227.854 200.097 227.975 200.215ZM227.607 200.819C227.723 200.904 227.838 201.112 227.953 201.12C227.869 201.002 227.766 200.78 227.607 200.819ZM227.759 199.217C227.77 199.183 227.791 199.158 227.802 199.124C227.747 199.042 227.61 199.087 227.586 199.171C227.628 199.202 227.709 199.193 227.759 199.217ZM231.108 200.145C231.105 199.946 230.899 199.83 230.741 199.937C230.791 200.084 230.942 200.123 231.108 200.145ZM229.077 197.105C229.081 197.067 228.944 197.067 228.947 197.105C228.977 197.112 229.078 197.21 229.077 197.105ZM228.234 197.012C228.205 197.012 228.177 197.012 228.148 197.012C228.118 197.042 228.126 197.113 228.126 197.174C228.166 197.181 228.247 197.258 228.277 197.198C228.224 197.178 228.284 197.036 228.234 197.012ZM226.613 196.989C226.685 197.164 226.975 197.151 227.024 196.966C226.901 196.914 226.72 196.95 226.613 196.989ZM226.678 196.339C226.595 196.334 226.519 196.338 226.462 196.362C226.479 196.463 226.678 196.445 226.678 196.339ZM226.873 192.602C226.762 192.657 226.53 192.547 226.419 192.602C226.517 193.02 227.246 192.795 227.197 192.463C227.155 192.181 226.462 192.251 226.225 192.277C226.409 192.42 226.701 192.446 226.873 192.602ZM226.008 193.043C226.049 193.108 226.161 193.096 226.225 193.136C226.237 193.087 226.278 193.07 226.268 192.997C226.211 192.964 226.007 192.939 226.008 193.043ZM227.111 192.95C227.099 193.001 227.058 193.1 227.132 193.113C227.184 193.074 227.173 192.984 227.111 192.95ZM227.716 191.557C227.71 191.49 227.764 191.486 227.759 191.418C227.671 191.409 227.608 191.427 227.607 191.511C227.649 191.521 227.662 191.561 227.716 191.557ZM227.694 186.405C227.608 186.971 228.083 187.656 228.645 187.449C228.671 187.235 228.58 187.147 228.58 186.962C228.723 186.925 228.808 187.072 228.882 187.031C228.672 186.623 228.113 186.589 227.694 186.405ZM227.456 185.871C227.646 185.911 227.944 185.891 228.018 185.732C227.875 185.629 227.444 185.601 227.456 185.871ZM226.938 184.246C226.979 183.795 226.466 183.546 226.16 183.852C225.968 184.042 225.885 184.503 226.181 184.664C226.148 184.545 226.049 184.496 226.073 184.316C226.299 184.178 226.711 184.383 226.938 184.246ZM226.786 185.732C226.841 185.698 226.924 185.694 226.916 185.592C226.85 185.6 226.736 185.676 226.786 185.732ZM226.333 187.449C226.602 187.456 226.805 187.293 227.067 187.287C227.294 187.282 227.51 187.354 227.78 187.333C227.588 186.725 226.651 187.256 226.333 187.449ZM225.922 188.517C226.432 188.447 227.142 188.087 227.824 188.169C228.081 188.2 228.306 188.355 228.45 188.471C228.377 188.386 228.289 188.039 228.45 187.983C228.805 188.056 228.817 188.775 229.25 188.679C229.47 188.631 229.538 188.171 229.423 187.89C229.588 188.015 229.673 188.225 229.898 188.285C229.847 188.062 229.697 187.944 229.596 187.774C229.659 187.688 229.743 187.623 229.725 187.449C229.107 187.385 228.558 187.744 227.975 187.867C227.522 187.963 227.186 188.058 226.787 188.169C226.486 188.252 226.153 188.311 225.922 188.517ZM224.107 193.322C224.077 193.351 224.069 193.46 224.128 193.461C224.146 193.444 224.186 193.3 224.107 193.322ZM224.863 190.56C223.915 190.721 224.925 191.803 225.49 191.534C225.561 191.417 225.539 191.309 225.533 191.14C225.862 191.174 226.109 191.002 226.397 191.07C226.444 191.178 226.356 191.269 226.333 191.372C227.313 191.305 227.799 190.478 228.861 190.351C228.993 190.335 229.143 190.36 229.293 190.351C229.74 190.323 230.236 190.234 230.698 190.142C231.151 190.052 231.565 189.873 231.951 189.77C232.436 189.642 233.173 189.302 233.075 188.61C233.064 188.531 233.013 188.46 232.967 188.378C230.392 188.11 228.466 189.195 226.441 189.631C226.197 189.683 225.902 189.649 225.706 189.863C225.777 190.05 226.025 190.046 226.138 190.188C226.082 190.259 225.942 190.241 225.922 190.351C225.97 190.547 226.241 190.503 226.268 190.722C225.838 191.048 224.936 190.632 225.144 189.979C224.494 190.132 223.548 190.284 223.545 191.07C223.544 191.417 223.736 191.737 223.955 191.929C223.807 191.198 224.06 190.116 224.863 190.56ZM225.663 194.9C225.682 194.743 225.442 194.633 225.36 194.737C225.44 194.814 225.564 194.843 225.663 194.9ZM224.906 195.202C225.059 195.772 225.109 196.454 225.511 196.757C225.451 196.087 225.229 195.59 224.906 195.202ZM225.814 194.598C225.881 194.27 225.434 194.142 225.403 194.366C225.377 194.561 225.663 194.538 225.814 194.598ZM225.9 193.971C225.803 193.857 225.558 193.786 225.382 193.832C225.444 193.996 225.827 194.24 225.9 193.971ZM225.641 192.95C225.739 192.885 225.842 192.826 225.857 192.671C225.732 192.571 225.431 192.556 225.403 192.718C225.382 192.84 225.535 192.89 225.641 192.95ZM225.922 193.345C225.931 193.265 225.913 193.215 225.9 193.159C225.79 193.156 225.738 193.216 225.728 193.322C225.781 193.341 225.843 193.352 225.922 193.345ZM224.409 193.229C224.393 193.169 224.388 193.097 224.345 193.066C224.291 193.129 224.289 193.241 224.409 193.229ZM224.625 191.65C224.528 191.61 224.385 191.653 224.345 191.743C224.39 191.787 224.455 191.81 224.517 191.836C224.539 191.759 224.637 191.763 224.625 191.65ZM224.863 194.645C224.807 194.511 224.8 194.325 224.69 194.25C224.394 194.295 224.687 194.752 224.863 194.645ZM225.274 197.151C225.485 197.699 225.707 198.291 226.16 198.544C225.821 198.139 225.742 197.471 225.511 196.989C225.432 196.822 225.305 196.693 225.23 196.525C225.056 196.128 224.975 195.665 224.625 195.48C224.763 196.064 225.059 196.592 225.274 197.151ZM231.216 205.855C231.086 205.377 230.735 205.135 230.244 205.043C230.123 204.732 229.773 204.667 229.704 204.3C229.693 204.225 229.838 204.198 229.79 204.161C229.133 204.295 229.109 203.546 228.796 203.232C228.006 203.248 228.153 202.197 227.716 201.654C227.591 201.499 227.467 201.463 227.327 201.306C227.111 200.587 226.547 200.223 226.225 199.589C225.938 199.025 225.878 198.39 225.403 197.987C225.779 199.352 226.583 200.505 227.305 201.654C227.883 202.574 228.276 203.449 228.926 204.184C229.146 204.433 229.396 204.6 229.661 204.834C230.111 205.231 230.422 205.967 231.216 205.855ZM231.13 204.277C231.107 204.177 230.94 204.11 230.849 204.161C230.933 204.21 231.025 204.25 231.13 204.277ZM231.929 203.673C231.783 203.49 231.477 203.42 231.195 203.302C230.845 203.155 230.346 203.016 230.093 203.186C230.118 203.414 230.287 203.488 230.395 203.627C230.695 203.677 230.867 203.834 231.151 203.859C231.486 203.889 231.799 203.873 231.929 203.673ZM242.237 208.965C241.583 208.645 240.624 209.006 239.925 208.826C239.793 208.792 239.676 208.695 239.558 208.687C239.44 208.679 239.302 208.746 239.19 208.757C238.591 208.814 238.045 208.75 237.483 208.663C237.089 208.603 236.67 208.579 236.316 208.478C235.977 208.381 235.627 208.158 235.279 208.014C234.926 207.867 234.558 207.721 234.22 207.573C233.553 207.281 232.844 206.776 232.146 206.575C232.617 207.113 233.429 207.286 233.982 207.735C233.2 207.5 232.61 207.059 231.908 206.737C232.455 207.263 233.217 207.581 233.982 207.921C234.744 208.259 235.572 208.545 236.467 208.687C238.246 208.968 240.331 209.386 242.237 208.965ZM242.799 208.896C242.688 208.901 242.55 208.876 242.54 208.989C242.634 209.075 242.792 209.066 242.799 208.896ZM243.966 206.157C243.997 206.328 244.229 206.277 244.204 206.087C244.086 206.069 244.035 206.123 243.966 206.157ZM245.76 207.364C245.179 207.349 244.462 207.133 243.858 207.155C243.626 207.163 243.344 207.223 243.275 207.48C243.453 207.557 243.644 207.511 243.858 207.503C244.559 207.478 245.415 207.816 245.76 207.364ZM246.343 207.317C246.242 207.317 246.212 207.394 246.192 207.48C246.22 207.512 246.286 207.503 246.343 207.503C246.333 207.4 246.373 207.388 246.343 207.317ZM247.618 207.225C247.513 207.207 247.473 207.348 247.51 207.41C247.578 207.421 247.595 207.377 247.64 207.364C247.655 207.293 247.603 207.295 247.618 207.225ZM249.412 207.364C248.969 207.313 248.453 207.344 248.05 207.41C248.287 207.65 249.138 207.497 249.412 207.364ZM228.623 193.252C228.836 193.379 229.033 193.647 229.315 193.623C229.239 193.512 229.131 193.434 229.055 193.322C229.136 193.315 229.204 193.295 229.228 193.229C228.965 193.031 228.628 192.79 228.494 192.532C228.583 192.717 228.719 193.012 228.623 193.252ZM231.389 193.438C231.343 193.387 231.364 193.264 231.303 193.229C231.289 193.33 231.35 193.471 231.389 193.438ZM229.401 195.457C229.434 195.839 229.662 196.012 229.682 196.409C229.429 196.1 229.288 195.671 229.12 195.271C229.104 195.755 229.24 196.054 229.358 196.385C229.449 196.64 229.534 196.939 229.769 197.012C229.878 196.99 229.872 196.844 229.985 196.826C230.105 196.845 230.167 197.047 230.244 197.035C230.186 196.966 230.168 196.854 230.158 196.734C230.178 196.648 230.293 196.662 230.33 196.594C230.113 196.116 229.802 195.739 229.401 195.457Z" fill="black"/>
<path d="M244.985 135.615C244.95 135.718 244.787 135.703 244.694 135.733C244.611 135.777 244.544 135.855 244.448 135.855C244.361 135.855 244.22 135.819 244.209 135.733C244.192 135.615 244.364 135.494 244.472 135.494C244.542 135.46 244.624 135.441 244.71 135.441C244.789 135.441 244.863 135.457 244.931 135.487L244.926 135.486C244.957 135.499 244.98 135.529 244.98 135.565C244.98 135.569 244.98 135.572 244.978 135.576V135.612H244.984L244.985 135.615ZM245.953 135.615V135.576C245.942 135.54 245.975 135.501 246.004 135.487C246.068 135.458 246.144 135.441 246.224 135.441C246.31 135.441 246.392 135.461 246.463 135.496L246.461 135.494C246.572 135.494 246.742 135.615 246.724 135.737C246.714 135.825 246.575 135.855 246.486 135.855C246.389 135.855 246.324 135.777 246.238 135.733C246.147 135.7 245.982 135.718 245.952 135.616L245.953 135.615ZM247.854 138.458C247.106 138.943 246.222 139.283 245.274 139.416L245.24 139.42C244.388 139.37 243.613 139.064 242.98 138.575L242.99 138.582C242.72 138.342 242.498 138.1 242.335 137.98C242.046 137.74 242.082 137.382 242.205 137.382C242.397 137.41 242.432 137.622 242.555 137.741C242.724 137.859 242.934 138.1 243.188 138.339C243.747 138.811 244.452 139.117 245.227 139.177L245.24 139.179C246.16 139.097 246.996 138.795 247.719 138.328L247.697 138.342C248.04 138.099 248.479 137.742 248.836 137.502C249.11 137.258 249.097 137.022 249.327 137.022C249.552 137.051 249.387 137.262 249.068 137.619C248.722 137.889 248.327 138.167 247.917 138.424L247.856 138.46L247.854 138.458ZM235.274 154.758H235.291C235.388 154.758 235.483 154.768 235.576 154.785L235.566 154.784C236.331 154.985 236.961 155.471 237.357 156.122L237.364 156.135L238.962 159.124L238.968 159.13C239.611 160.241 240.301 161.202 241.073 162.089L241.058 162.071C241.747 162.818 242.211 163.79 242.336 164.868L242.339 164.891V164.903C242.322 166.077 241.477 167.046 240.376 167.226L240.363 167.227C240.082 167.272 239.756 167.296 239.425 167.296C238.22 167.296 237.092 166.961 236.125 166.376L236.154 166.393C234.673 165.759 232.955 165.367 231.155 165.312H231.134C230.611 165.276 230.155 165.003 229.867 164.599L229.864 164.595C229.788 164.345 229.745 164.057 229.745 163.758C229.745 163.255 229.868 162.782 230.088 162.37L230.081 162.386V162.378L230.085 162.373C230.142 162.102 230.176 161.79 230.176 161.471C230.176 161.077 230.126 160.696 230.03 160.334L230.037 160.364C229.979 160.149 229.946 159.9 229.946 159.643C229.946 159.295 230.006 158.963 230.119 158.655L230.113 158.675C230.394 158.076 230.809 157.957 231.325 157.718C231.941 157.527 232.477 157.238 232.944 156.866L232.932 156.874H232.935V156.87C233.385 156.388 233.717 155.79 234.11 155.365C234.384 155.007 234.801 154.775 235.272 154.761H235.275L235.274 154.758ZM254.278 154.67C254.277 154.695 254.277 154.725 254.277 154.755C254.277 155.823 254.908 156.74 255.811 157.139L255.828 157.146C255.895 157.15 255.974 157.153 256.053 157.153C257.221 157.153 258.267 156.62 258.971 155.777L258.975 155.772L259.346 155.754C259.421 155.743 259.506 155.737 259.594 155.737C260.073 155.737 260.51 155.927 260.835 156.237L260.834 156.236L260.84 156.242C261.19 156.674 261.433 157.209 261.524 157.797L261.527 157.816C261.605 158.542 261.862 159.196 262.254 159.742L262.247 159.73C262.832 160.242 263.239 160.952 263.362 161.759L263.365 161.777L263.371 161.765V161.796L263.365 161.775C263.338 162.245 263.04 162.486 262.49 162.844C260.825 163.559 259.395 164.509 258.163 165.673L258.173 165.664C257.318 166.803 256.062 167.589 254.625 167.801L254.596 167.803C254.492 167.818 254.371 167.826 254.248 167.826C253.168 167.826 252.24 167.159 251.835 166.208L251.828 166.191L251.82 166.185C251.689 165.774 251.615 165.301 251.615 164.811C251.615 164.213 251.726 163.642 251.93 163.117L251.918 163.149C252.247 162.189 252.53 161.041 252.717 159.86L252.732 159.741C252.755 158.573 252.879 157.451 253.095 156.362L253.076 156.482C253.195 155.737 253.611 155.11 254.192 154.721L254.202 154.715L254.281 154.676L254.278 154.67ZM250.437 138.579C251.281 141.665 252.32 144.332 253.597 146.855L253.486 146.615C254.348 148.182 255.019 150 255.403 151.926L255.423 152.047C255.435 152.047 255.451 152.047 255.466 152.047C255.771 152.047 256.067 152.089 256.348 152.168L256.324 152.162C256.479 151.594 256.567 150.943 256.567 150.27C256.567 148.22 255.742 146.366 254.412 145.039L254.41 145.038C254.023 144.678 254.002 144.435 254.194 144.435C255.559 145.744 256.569 147.423 257.069 149.314L257.086 149.388C257.211 149.861 257.283 150.404 257.283 150.965C257.283 151.469 257.225 151.961 257.116 152.431L257.124 152.388C257.228 152.442 257.349 152.484 257.477 152.507L257.486 152.508C259.3 153.467 259.969 154.193 259.647 155.27V155.192C259.542 155.187 259.436 155.192 259.331 155.192H259.302C259.568 154.353 258.983 153.71 257.431 152.993C255.823 152.274 254.538 152.389 254.32 153.828C254.305 153.899 254.293 153.98 254.289 154.065V154.07C254.187 154.113 254.064 154.153 253.938 154.182L253.922 154.185C253.208 154.668 252.699 155.419 252.531 156.296L252.529 156.316C252.32 157.315 252.19 158.473 252.169 159.656V159.673V159.679C252.041 160.594 251.845 161.414 251.581 162.199L251.609 162.104C250.227 163.26 248.443 163.958 246.499 163.958C244.91 163.958 243.427 163.491 242.177 162.683L242.211 162.703C242.006 162.34 241.771 162.025 241.504 161.744L241.505 161.746C241.369 161.516 241.208 161.319 241.024 161.149L241.021 161.148C241.312 161.148 241.594 161.103 241.859 161.021L241.838 161.027C242.091 160.905 242.285 160.694 242.388 160.435L242.391 160.428C242.416 160.294 242.432 160.142 242.432 159.985C242.432 159.345 242.186 158.766 241.783 158.338L241.785 158.339C240.914 157.245 239.874 156.334 238.697 155.636L238.643 155.608C237.7 155.05 236.985 154.177 236.632 153.132L236.622 153.101C236.492 152.644 236.416 152.117 236.416 151.574C236.416 151.067 236.482 150.575 236.604 150.106L236.596 150.145C237.126 148.256 237.891 146.608 238.874 145.12L238.835 145.182C239.023 145.065 238.899 145.424 238.117 146.931C237.451 147.956 237.053 149.217 237.053 150.572C237.053 151.78 237.368 152.911 237.919 153.887L237.902 153.855C237.975 151.974 238.387 150.208 239.075 148.596L239.04 148.689C240.523 145.955 241.647 142.779 242.239 139.414L242.267 139.226C242.352 139.291 242.648 139.469 242.775 139.588C243.157 139.827 243.443 140.186 243.811 140.423C244.187 140.797 244.701 141.027 245.267 141.027C245.296 141.027 245.326 141.027 245.355 141.026H245.351C245.42 141.031 245.483 141.037 245.544 141.037C246.189 141.024 246.791 140.847 247.314 140.546L247.296 140.556C247.805 140.316 248.21 139.956 248.597 139.837H248.605C249.357 139.628 249.987 139.184 250.433 138.588L250.439 138.579H250.437ZM245.517 134.731C245.521 134.731 245.525 134.731 245.53 134.731C246.33 134.731 247.068 135 247.663 135.454L247.653 135.447C248.185 135.783 248.798 136.069 249.446 136.272L249.502 136.286H249.508C249.854 136.444 250.139 136.69 250.343 136.996L250.347 137.004V136.768C250.412 136.9 250.452 137.057 250.452 137.222C250.452 137.363 250.423 137.497 250.374 137.619L250.377 137.612C249.972 138.34 249.315 138.882 248.531 139.118L248.508 139.124V139.127C248.037 139.37 247.628 139.725 247.147 139.962C246.655 140.264 246.063 140.442 245.428 140.442C245.407 140.442 245.386 140.442 245.365 140.442H245.368C245.337 140.444 245.3 140.445 245.264 140.445C245.019 140.445 244.783 140.4 244.566 140.317L244.58 140.321C244.357 140.196 244.173 140.078 243.994 139.952L244.014 139.966C243.695 139.68 243.343 139.406 242.975 139.154L242.938 139.131V139.122H242.93C242.402 138.836 241.987 138.398 241.731 137.863L241.724 137.846C241.686 137.75 241.665 137.638 241.665 137.521C241.665 137.208 241.823 136.932 242.06 136.771L242.063 136.769C242.457 136.526 242.731 136.282 242.913 136.166C243.095 136.033 243.164 135.983 243.222 135.93H243.225V135.924C243.602 135.437 244.101 135.063 244.676 134.852L244.699 134.844C244.943 134.773 245.225 134.731 245.516 134.728L245.517 134.731ZM243.11 131.666H243.173C243.437 131.672 243.68 131.762 243.877 131.911L243.875 131.908C244.126 132.136 244.332 132.414 244.472 132.727L244.478 132.743C244.637 133.095 244.735 133.505 244.746 133.936V133.94V133.947C244.752 134.014 244.755 134.09 244.755 134.166C244.755 134.257 244.751 134.347 244.742 134.436L244.744 134.425V134.568C244.692 134.581 244.645 134.6 244.597 134.612C244.329 134.725 244.102 134.846 243.887 134.982L243.907 134.971C243.918 134.892 243.924 134.801 243.924 134.709C243.924 134.633 243.92 134.557 243.911 134.482L243.912 134.491V134.464C243.887 134.242 243.837 134.039 243.762 133.848L243.768 133.864C243.71 133.674 243.609 133.513 243.477 133.385C243.399 133.314 243.297 133.269 243.183 133.269C243.173 133.269 243.163 133.269 243.153 133.27H243.155H243.118C242.973 133.286 242.852 133.378 242.792 133.505L242.79 133.508C242.682 133.641 242.607 133.807 242.579 133.988V133.993C242.547 134.117 242.53 134.259 242.53 134.406C242.53 134.469 242.533 134.533 242.54 134.594V134.587V134.614C242.562 134.836 242.613 135.04 242.686 135.23L242.681 135.214C242.74 135.404 242.84 135.566 242.972 135.695C242.989 135.713 243.008 135.727 243.031 135.739H243.032C242.915 135.815 242.814 135.895 242.721 135.984L242.723 135.983C242.66 136.04 242.582 136.084 242.496 136.104L242.492 136.105C242.319 135.894 242.159 135.657 242.021 135.407L242.01 135.384C241.851 135.031 241.752 134.623 241.737 134.19V134.185C241.731 134.116 241.729 134.035 241.729 133.953C241.729 133.607 241.783 133.273 241.883 132.961L241.878 132.984C241.982 132.613 242.152 132.293 242.378 132.02L242.375 132.024C242.554 131.808 242.816 131.672 243.11 131.665H243.111L243.11 131.666ZM248.315 131.56H248.338C248.339 131.56 248.341 131.56 248.344 131.56C248.73 131.56 249.085 131.693 249.369 131.918L249.365 131.915C249.687 132.169 249.945 132.49 250.127 132.856L250.134 132.872C250.304 133.255 250.409 133.699 250.425 134.167V134.173C250.425 134.137 250.435 134.101 250.435 134.065V134.254L250.428 134.216L250.421 134.173C250.416 134.633 250.321 135.067 250.149 135.463L250.158 135.442C250.07 135.677 249.944 135.878 249.784 136.045C249.741 136.019 249.689 135.994 249.637 135.973L249.629 135.97C249.439 135.91 249.273 135.828 249.123 135.727L249.13 135.731C249.021 135.685 248.892 135.645 248.758 135.615L248.743 135.612C248.857 135.503 248.962 135.386 249.059 135.263L249.065 135.256C249.154 135.043 249.208 134.797 249.22 134.538V134.534V134.498C249.22 134.487 249.22 134.475 249.22 134.462C249.22 134.218 249.18 133.983 249.107 133.765L249.111 133.781C249.023 133.552 248.915 133.355 248.785 133.176L248.791 133.183C248.668 133.056 248.507 132.97 248.325 132.946H248.321H248.293C248.292 132.946 248.289 132.946 248.287 132.946C248.102 132.946 247.936 133.039 247.835 133.181L247.833 133.183C247.67 133.345 247.546 133.546 247.476 133.772L247.473 133.782C247.385 133.993 247.327 134.239 247.316 134.495V134.499V134.534C247.318 134.706 247.331 134.873 247.354 135.036L247.351 135.014C247.012 134.893 246.582 134.771 246.283 134.652C246.267 134.547 246.255 134.423 246.252 134.297V134.292V134.257C246.251 134.228 246.251 134.195 246.251 134.162C246.251 133.696 246.348 133.255 246.524 132.856L246.515 132.877C246.665 132.475 246.927 132.146 247.264 131.923L247.271 131.919C247.557 131.695 247.922 131.56 248.315 131.56ZM247.386 125.443C247.113 125.443 246.832 125.458 246.542 125.481C239.116 126.079 241.086 134.116 240.972 136.794C240.902 138.844 240.221 140.717 239.109 142.245L239.127 142.219C237.148 144.522 235.534 147.213 234.415 150.158L234.354 150.341C233.991 151.325 233.78 152.462 233.78 153.65C233.78 154.06 233.806 154.463 233.854 154.859L233.849 154.811C233.771 154.877 233.705 154.958 233.658 155.05L233.657 155.054C233.2 155.536 232.866 156.132 232.491 156.561C232.093 156.873 231.626 157.119 231.12 157.271L231.09 157.278C230.438 157.478 229.906 157.913 229.579 158.487L229.572 158.5C229.425 158.805 229.34 159.163 229.34 159.542C229.34 159.557 229.34 159.569 229.34 159.584C229.342 159.926 229.376 160.257 229.442 160.579L229.437 160.546C229.515 160.86 229.56 161.223 229.56 161.595C229.56 161.839 229.541 162.079 229.503 162.314L229.505 162.288C229.271 162.738 229.134 163.272 229.134 163.84C229.134 164.24 229.202 164.622 229.327 164.977L229.32 164.954C229.704 165.512 230.285 165.906 230.957 166.031L230.972 166.034C232.764 166.188 234.419 166.57 235.98 167.155L235.848 167.112C236.829 167.709 238.012 168.061 239.273 168.061C239.687 168.061 240.092 168.023 240.485 167.95L240.445 167.956C241.383 167.739 242.148 167.113 242.56 166.275L242.568 166.257C243.6 166.251 244.73 165.774 246.539 165.657C247.767 165.554 249.305 166.137 251.067 166.017C251.12 166.245 251.188 166.445 251.276 166.633L251.267 166.615L251.273 166.62C251.813 167.776 252.946 168.561 254.26 168.561C254.374 168.561 254.486 168.555 254.597 168.544L254.583 168.545C256.202 168.301 257.591 167.441 258.539 166.212L258.549 166.199C259.734 165.095 261.118 164.185 262.634 163.536L262.728 163.5C263.336 163.225 263.772 162.659 263.867 161.977L263.869 161.967C263.786 160.97 263.317 160.1 262.62 159.5L262.614 159.496V159.322L262.609 159.316C262.308 158.842 262.097 158.279 262.017 157.675L262.014 157.653C261.939 156.916 261.623 156.265 261.149 155.774H261.143C261.039 155.678 260.927 155.654 260.813 155.532C260.72 155.464 260.605 155.422 260.48 155.417C260.754 154.551 260.911 153.556 260.911 152.523C260.911 151.172 260.64 149.885 260.15 148.718L260.174 148.781C259.184 146.378 257.898 144.309 256.332 142.501L256.352 142.525C254.798 140.97 253.782 138.858 253.613 136.506L253.611 136.476C253.658 132.611 254.026 125.459 247.383 125.449L247.386 125.443Z" fill="black"/>
<defs>
<linearGradient id="paint0_linear_116_102" x1="83.4177" y1="228.326" x2="97.9192" y2="267.263" gradientUnits="userSpaceOnUse">
<stop/>
</linearGradient>
<linearGradient id="paint1_linear_116_102" x1="25.8789" y1="94.5169" x2="43.2562" y2="118.117" gradientUnits="userSpaceOnUse">
<stop stop-color="#040404"/>
</linearGradient>
<linearGradient id="paint2_linear_116_102" x1="40.1944" y1="92.682" x2="43.3379" y2="114.246" gradientUnits="userSpaceOnUse">
<stop stop-color="white"/>
</linearGradient>
<clipPath id="clip0_116_102">
<rect width="30" height="29.1892" fill="white" transform="translate(58 193)"/>
</clipPath>
<clipPath id="clip1_116_102">
<rect width="60" height="60" fill="white" transform="translate(0 217)"/>
</clipPath>
<clipPath id="clip2_116_102">
<rect width="30" height="30" fill="white" transform="translate(69 111)"/>
</clipPath>
<clipPath id="clip3_116_102">
<rect width="31" height="31" fill="white" transform="translate(157 180)"/>
</clipPath>
<clipPath id="clip4_116_102">
<rect width="60" height="60" fill="white" transform="translate(196 90)"/>
</clipPath>
<clipPath id="clip5_116_102">
<rect width="60" height="60" fill="white" transform="translate(175 214)"/>
</clipPath>
<clipPath id="clip6_116_102">
<rect width="60" height="60" fill="white" transform="translate(5 6)"/>
</clipPath>
<clipPath id="clip7_116_102">
<rect width="60" height="60" fill="white" transform="translate(75 52)"/>
</clipPath>
<clipPath id="clip8_116_102">
<rect width="35" height="32" fill="white" transform="translate(125 227)"/>
</clipPath>
</defs>
</svg>
